<svg width="445" height="571" viewBox="0 0 445 571" fill="none" xmlns="http://www.w3.org/2000/svg">
<path d="M109.919 460.364C110.578 460.817 107.012 461.455 106.824 461.99C105.999 464.227 103.526 465.057 102.124 467.084C100.041 470.087 104.729 478.997 79.9484 479C79.948 479 79.9476 479 79.9472 479C79.7041 479 79.4582 478.999 79.2094 478.997C74.4886 478.966 69.3348 478.207 63.9958 478.095C58.6547 477.982 24.1739 478.067 22.2354 476.989C19.6809 475.427 28.522 471.683 28.1302 470.851C27.8602 470.282 24.7256 469.582 24.169 468.855C22.3752 466.508 24.6674 465.277 16.1527 463.163C20.6398 462.318 25.1269 461.472 29.614 460.627C27.5335 459.524 33.4513 457.857 33.1254 457.184C32.8573 456.633 29.309 456.31 29.1441 455.736C28.939 455.093 32.769 454.105 32.1922 452.935C31.2642 451.018 22.0078 450.677 20.8323 449.528C19.6159 448.337 24.6469 446.485 21.3896 444.959C20.3714 444.768 19.3531 444.576 18.3348 444.385C16.032 444.522 13.7291 444.659 11.4262 444.796C10.3543 444.028 15.0737 443.699 15.1592 442.994C15.2623 442.165 10.788 441.742 10.8086 441.184C10.8295 440.728 14.4172 440.109 14.1924 439.517C13.8831 438.654 8.70294 438.843 7.73372 438.379C7.35722 438.196 4.49862 434.766 4.45743 434.571C4.25321 433.098 11.3436 432.97 11.9636 431.796C13.6547 428.543 7.92552 425.212 5.76035 422.194C4.79174 420.849 5.20383 419.448 6.33793 418.111C24.4844 420.218 38.6073 415.558 10.2119 417.299C14.2515 415.815 6.58623 414.753 7.88238 413.336C8.72793 412.421 12.6652 411.787 12.5621 410.482C12.3542 408.165 1.16285 405.643 21.3913 404.977C17.8255 402.247 25.1633 399.894 7.30603 398.913C6.2152 398.212 16.8519 396.421 18.297 395.639C19.6581 394.9 24.4614 389.174 24.7296 388.249C24.9978 387.317 25.2896 385.688 23.723 384.906C21.7846 383.915 3.26525 383.217 24.9185 381.459C23.1666 379.411 23.7863 378.684 26.3022 376.788C26.7571 376.445 29.9718 376.407 29.9748 376.206C29.9748 375.792 27.5993 375.097 27.3096 374.352C26.8355 373.13 33.5998 372.435 23.2682 372.569C21.5361 371.765 19.8041 370.961 18.072 370.159C20.0661 369.878 22.0602 369.597 24.0542 369.316C21.8813 368.887 19.7083 368.458 17.5353 368.03C32.4856 368.534 23.6637 365.526 15.085 366.5C18.1781 364.96 21.2713 363.392 24.3645 361.835C41.356 362.054 26.3261 358.42 17.0873 358.725C17.1007 358.547 17.1142 358.37 17.1277 358.192C21.6442 356.636 17.9507 355.23 20.9825 353.313C24.0143 351.408 25.6687 351.589 33.4844 351.013C33.0369 350.565 32.5894 350.119 32.1419 349.672C10.7165 347.321 47.8126 347.769 31.3781 343.738C44.8446 342.452 37.7721 339.285 33.6896 337.202C33.2154 336.959 30.6016 336.954 29.7957 336.631C27.8577 335.852 31.2184 333.803 22.7873 333.873C25.227 333.169 27.6666 332.466 30.1062 331.765C28.5734 331.19 27.0406 330.617 25.5078 330.044C22.8759 330.046 20.2441 330.048 17.6122 330.05C26.5825 328.9 23.1359 327.096 25.2809 326.208C25.7157 326.029 29.3462 325.991 30.3367 325.434C31.5124 324.783 30.4386 323.571 31.5731 322.799C27.5516 322.498 23.5301 322.196 19.5086 321.894C17.3279 320.515 27.9431 320.037 28.7682 319.231C28.9116 319.083 28.1501 316.45 27.9235 316.292C26.1277 315.112 17.0843 315.434 19.0228 312.041C19.3735 311.437 22.5029 310.951 22.6289 310.408C22.8562 309.452 15.7608 306.547 9.20321 306.306C17.4113 305.13 14.0581 301.998 16.4301 301.085C17.1594 300.809 22.3873 300.748 23.5005 299.901C24.4082 299.226 20.2233 297.41 20.9243 296.53C21.6878 295.593 26.0797 295.262 26.3904 294.844C26.6794 294.449 23.1343 294.082 23.1551 293.545C23.2799 291.864 28.9872 290.385 29.0931 289.028C29.2594 287.091 18.764 285.387 14.1046 283.785C14.7854 283.389 17.0387 283.002 17.0596 282.587C17.3935 277.385 19.3322 271.549 21.5847 266.382C22.6192 263.975 36.8732 257.98 13.0983 259.56C8.93562 258.76 18.5272 252.607 18.6729 251.481C18.8172 250.335 14.5555 249.422 14.4937 248.494C14.3115 245.699 17.3856 243.862 13.6783 240.458C12.709 239.585 7.66011 238.651 7.71958 238.141C7.80293 237.527 12.6882 236.875 12.9997 236.087C13.7035 234.206 12.1025 230.591 12.9506 228.816C13.1162 228.485 17.405 228.39 18.7463 227.901C23.987 226.016 23.5364 223.947 9.84321 224.289C17.6211 221.966 10.5345 219.692 10.1046 217.5C9.22694 212.819 12.443 204.39 6.70181 200.244C5.16231 199.155 3.16783 198.548 1.79085 197.924C-0.071873 197.034 -0.80441 196.094 2.24964 193.958C3.42759 193.147 5.01564 192.308 6.42138 191.274C9.72916 188.895 21.0826 186.754 7.41903 184.88C10.9752 182.287 8.47045 180.131 20.1714 178.211C17.3684 177.961 14.5654 177.713 11.7624 177.466C11.6946 177.138 11.6268 176.813 11.5591 176.49C14.2339 176.403 16.9087 176.316 19.5836 176.23C20.3153 173.916 9.34001 170.889 9.43248 168.904C9.57449 165.598 13.9099 157.031 17.5536 153.933C19.488 152.205 13.7607 152.153 25.5457 151.264C24.731 150.871 23.9164 150.487 23.1018 150.112C20.5266 149.858 17.9517 149.577 15.3769 149.3C15.3008 147.13 19.3435 144.566 19.343 142.447C19.3231 139.751 15.5604 134.844 15.5225 132.27L15.5092 132.956C15.4783 131.829 15.9079 130.772 17.1228 129.839C18.3068 128.935 23.6336 127.84 23.5813 126.936C23.5097 125.63 14.6897 125.238 14.5369 123.585C14.2908 120.737 24.5682 115.464 23.7928 112.745C23.5686 111.936 20.2868 111.552 19.9379 110.997C18.4392 108.664 18.7099 106.754 13.6392 104.514C22.0962 102.127 33.0089 102.328 44.0213 101.587C52.3329 101.03 71.5942 99.2688 78.8734 99.0293C83.9874 98.8573 90.566 99.4997 96.1952 99.2579C100.691 102.172 95.7411 103.421 87.8195 105.783C88.1294 110.179 88.431 114.578 88.7225 118.989C85.6476 119.369 82.5727 119.752 79.4976 120.137C79.4909 120.137 79.4842 120.137 79.4775 120.137C75.9214 121.797 83.8294 122.568 85.6193 123.489C90.9987 126.267 93.3467 129.876 93.9652 133.81C93.9998 133.935 93.92 134.333 93.9526 134.458C95.0741 142.916 88.2625 152.052 86.8665 158.666C86.435 160.688 90.5285 167.304 85.5303 168.711C84.2284 169.055 79.4899 169.125 79.2814 169.504C82.0776 173.022 84.8777 176.379 87.679 179.9C81.4198 185.86 84.7968 192.055 86.6571 198.18C86.9947 199.254 87.2822 200.346 87.4533 201.451C90.4727 220.882 94.1821 239.99 93.0276 259.086C92.7969 262.75 96.3423 267.445 94.0502 271.05C93.0998 272.56 85.4905 273.209 91.1598 275.164C89.1098 275.183 87.0598 275.201 85.0098 275.22C87.4832 276.938 92.1468 278.043 92.6196 279.991C93.0101 281.668 93.3115 285.904 92.527 287.367C92.1347 288.117 88.3044 287.835 88.3233 288.536C88.3844 289.753 93.6784 292.273 93.6776 293.917C93.6766 295.402 89.2627 297.929 89.9013 299.086C92.1674 303.159 98.7057 307.736 96.9508 312.089C96.4543 313.302 91.4869 314.869 91.6253 315.252C91.9136 316 96.7382 316.225 97.3583 316.729C100.492 319.25 94.7565 323.19 94.5281 325.7C93.7826 333.759 95.8858 342.401 94.9971 350.432C94.4391 355.556 95.2864 364.018 91.6564 368.7C90.8726 369.714 85.587 369.443 85.5868 370.295C85.5878 371.24 89.1584 371.754 89.447 372.196C91.4675 375.28 95.076 381.978 91.4257 384.891C90.7249 385.438 86.5833 385.835 86.5983 386.162C86.5983 386.328 89.4246 386.703 89.7134 387.225C92.27 391.829 90.6214 395.219 89.6517 399.726C87.8158 408.406 93.0733 418.416 90.2275 427.531C89.6088 429.509 81.4169 430.869 81.4993 431.148C81.6645 431.759 87.1744 432.151 88.5354 433.392C93.0088 437.529 87.1292 443.05 89.8914 446.984C91.2522 448.917 98.2466 451.575 99.7943 453.481C101.031 455.003 98.2877 458.603 101.359 459.273C103.214 459.683 109.173 459.873 109.919 460.364ZM17.1612 409.092C26.6885 409.363 18.771 406.519 13.6567 407.585C12.5051 407.825 14.6881 409.022 17.1612 409.092ZM33.7489 275.663C31.0275 275.687 28.3062 275.71 25.5848 275.734C26.7169 276.107 27.849 276.481 28.9811 276.855C30.6172 276.646 32.2533 276.438 33.8895 276.23C33.8426 276.041 33.7958 275.852 33.7489 275.663Z" fill="white"/>
<path d="M144.921 493.571C145.581 494.139 142.014 494.94 141.826 495.614C141 498.424 138.527 499.465 137.125 502.015C135.041 505.785 139.729 516.998 114.948 517C114.948 517 114.948 517 114.947 517C114.704 517 114.458 516.999 114.209 516.997C109.489 516.957 104.335 516.003 98.9958 515.861C93.6547 515.72 59.1739 515.826 57.2354 514.472C54.6809 512.505 63.5221 507.798 63.1304 506.746C62.8604 506.028 59.7259 505.152 59.1694 504.231C57.3759 501.278 59.6683 499.735 51.1542 497.067C55.6415 496.008 60.1289 494.936 64.6164 493.876C62.5363 492.486 68.455 490.388 68.1294 489.538C67.8617 488.844 64.3136 488.436 64.149 487.717C63.9445 486.907 67.7751 485.663 67.1993 484.192C66.273 481.774 57.017 481.338 55.8428 479.887C54.6277 478.386 59.6611 476.047 56.4063 474.126C55.3884 473.885 54.3704 473.647 53.3525 473.401C51.0494 473.573 48.7463 473.741 46.4432 473.91C45.3725 472.942 50.0925 472.524 50.1793 471.64C50.2839 470.606 45.8105 470.047 45.8323 469.347C45.8541 468.774 49.4432 467.996 49.2198 467.245C48.9125 466.154 43.7319 466.384 42.7638 465.798C42.3876 465.554 39.5388 461.208 39.4985 460.972C39.2992 459.089 46.39 458.977 47.0146 457.475C48.7183 453.369 43.0064 449.094 40.8642 445.237C39.9058 443.513 40.3303 441.699 41.4785 439.993C59.6021 442.823 73.7748 436.992 45.3614 438.964C47.1157 438.172 46.6808 437.392 45.728 436.698C45.7667 436.537 45.7026 436.032 45.7443 435.872C44.5118 434.925 42.3873 434.006 43.1518 433.019C44.0303 431.896 47.989 431.212 47.9334 429.574C47.8099 426.654 36.7144 423.159 56.9584 422.903C53.4919 419.387 60.9105 416.642 43.095 414.908C42.0295 413.997 52.7252 412.046 54.1972 411.099C55.5843 410.206 60.5837 403.182 60.8834 402.015C61.1833 400.855 61.531 398.802 59.9915 397.78C58.0877 396.478 39.5981 395.125 61.3029 393.496C59.8627 391.249 60.1269 390.288 61.8515 388.582C61.8972 388.405 61.8388 387.845 61.89 387.669C62.1908 387.349 62.534 387.014 62.9193 386.647C63.404 386.185 66.6157 386.339 66.6367 386.06C66.6742 385.483 64.3711 384.34 64.1584 383.3C63.8114 381.587 70.6302 381.228 60.3174 380.57C58.6784 379.351 57.042 378.147 55.4041 376.97C57.4218 376.779 59.439 376.595 61.4562 376.411C59.3373 375.687 57.2179 374.97 55.0974 374.262C69.9437 376.134 61.4584 371.751 52.8104 372.22C56.0445 370.651 59.265 369.136 62.4721 367.578C79.4138 368.984 64.6799 363.755 55.4256 363.653C55.4501 363.455 55.474 363.266 55.498 363.07C58.4805 362.116 58.011 361.018 58.1558 359.837C58.2331 359.225 58.4917 358.568 59.5825 357.853C62.6792 355.809 64.3233 356.028 72.1545 355.549C71.7202 355.004 71.2848 354.463 70.8486 353.915C49.4794 350.722 86.5681 351.849 70.1923 346.668C83.6759 345.226 76.6348 341.199 72.5732 338.518C72.1015 338.205 69.4878 338.178 68.6854 337.76C66.7551 336.737 70.1408 334.169 61.7099 334.165C64.1591 333.28 66.6094 332.392 69.0616 331.513C67.5395 330.737 66.0188 329.952 64.5003 329.158C61.8689 329.113 59.2374 329.068 56.6059 329.023C65.6012 327.625 62.2195 325.032 64.4152 323.761C64.8589 323.518 68.4782 323.584 69.5076 322.831C69.509 322.83 69.5105 322.829 69.512 322.828C70.7196 322.124 69.7 320.681 70.8628 319.816C66.8552 319.328 62.8464 318.86 58.837 318.394C56.7028 316.765 67.3266 316.468 68.1738 315.511C68.3229 315.35 67.6235 312.106 67.3989 311.912C65.6302 310.401 56.574 310.765 58.5957 306.34C58.9626 305.541 62.1056 304.951 62.2496 304.212C62.4996 302.953 55.5531 298.556 49.0273 297.858C56.3823 296.61 54.7619 292.579 56.0885 290.76C56.2381 290.712 56.4344 290.659 56.6995 290.618C57.438 290.496 62.6577 290.843 63.8117 290.124C64.7545 289.546 60.6482 287.479 61.3779 286.499C62.1733 285.472 66.5733 285.196 66.8974 284.701C67.1981 284.25 63.6654 283.71 63.7011 283.075C63.8727 281.058 69.6143 279.298 69.7507 277.645C69.9606 275.259 59.503 272.934 54.8796 270.827C55.5689 270.341 57.8305 269.878 57.8607 269.352C58.2096 264.257 59.5512 258.601 61.2809 253.216C61.7754 251.502 62.3203 249.782 62.8779 248.307C64.0581 245.298 78.4789 238.851 54.6634 240.083C50.5345 239.096 60.2388 231.993 60.3927 230.526C60.5519 229.12 56.3006 227.929 56.2477 226.832C56.2313 226.478 56.2511 226.129 56.2952 225.782C56.6677 222.933 58.7904 220.627 55.4894 216.895C54.5245 215.806 49.4794 214.646 49.5409 214.004C49.6268 213.221 54.5144 212.444 54.8284 211.437C55.5388 209.073 53.9446 204.638 54.7939 202.363C54.9598 201.947 59.2487 201.806 60.5903 201.213C65.8322 198.906 65.3808 196.296 51.6877 196.741C59.4648 193.778 52.3752 191.018 51.9407 188.265C51.0555 182.445 54.233 171.823 48.4586 166.789C44.8163 163.61 38.6772 163.739 43.9511 159.036C45.1204 157.99 46.6992 156.948 48.0927 155.696C49.6461 154.29 53.0043 152.919 54.6525 151.677C56.4828 150.244 56.2031 148.975 48.9958 147.889C52.5041 144.654 49.9498 142.181 61.5929 139.601C58.784 139.389 55.9744 139.151 53.1652 138.938C53.088 138.561 53.0101 138.164 52.9323 137.784C55.6033 137.605 58.2744 137.427 60.9452 137.242C61.6032 134.427 50.5118 131.091 50.5283 128.48C50.5353 125.75 52.1598 120.142 54.2907 115.477C55.5307 112.776 56.9322 110.364 58.251 108.875C60.1533 106.758 54.4253 106.676 66.1922 105.396C65.3705 104.927 64.5489 104.47 63.7274 104C61.1477 103.719 58.5681 103.428 55.9886 103.152C55.8719 100.449 59.8642 97.2363 59.8152 94.6726C59.7173 90.0008 52.6083 83.0067 57.2635 78.3199C58.4374 77.1467 63.7525 75.6743 63.6915 74.526C63.6076 72.8564 54.7843 72.4561 54.618 70.3337C54.3475 66.6853 64.5963 59.8697 63.8128 56.4275C63.764 56.2085 63.5739 56.0173 63.302 55.845C62.3095 55.1753 60.2275 54.79 59.9523 54.2236C58.4469 51.2699 58.7143 48.8325 53.6413 45.9877C62.0962 42.9543 73.0096 43.1952 84.0216 42.2608C92.3329 41.5451 111.594 39.3462 118.873 39.0377C123.987 38.8187 130.566 39.6363 136.195 39.3286C140.691 42.9755 135.742 44.5234 127.823 47.4789C127.983 50.2721 128.144 53.037 128.304 55.845C128.459 58.5161 128.615 61.2349 128.77 63.9162C125.698 64.4088 122.625 64.9082 119.553 65.4141C119.546 65.4141 119.539 65.4141 119.532 65.4141C115.987 67.5088 123.901 68.4029 125.697 69.5344C142.901 80.3631 129.466 101.713 127.645 113.47C127.595 113.802 127.622 114.226 127.697 114.702C128.193 118.014 130.881 124.186 126.58 125.781C125.292 126.257 120.558 126.495 120.364 126.975C123.287 131.132 126.234 135.582 129.128 140.04C126.295 143.748 125.524 147.37 125.703 151.042C125.977 156.633 128.51 162.235 129.217 167.731C131.739 187.431 134.627 206.843 134.944 226.447C135.016 231.326 134.927 236.209 134.586 241.295C134.302 245.706 136.858 251.994 135.672 255.079C135.539 255.536 135.36 255.98 135.125 256.408C134.132 258.236 126.507 258.836 132.124 261.408C130.074 261.39 128.024 261.372 125.973 261.354C128.402 263.549 133.039 265.009 133.467 267.424C133.82 269.442 134.029 274.868 133.212 276.683C132.803 277.632 128.98 277.199 128.983 278.089C129.017 279.604 134.248 282.985 134.193 285.19C134.147 287.181 129.632 290.498 130.184 292.309C130.566 293.56 131.099 294.888 131.639 296.598C134.153 300.179 138.003 303.801 136.507 307.939C135.983 309.343 130.984 311.207 131.114 311.696C131.386 312.641 136.205 313.013 136.813 313.674C139.797 316.911 134.38 322.101 133.68 325.6C133.66 325.67 133.645 325.741 133.635 325.811C132.591 333.973 134.807 345.415 133.668 356.248C133.473 358.136 133.364 360.41 133.198 362.943C132.779 369.554 131.892 377.352 128.878 381.41C127.987 382.622 122.75 381.829 122.66 382.88C122.562 384.038 126.071 384.936 126.316 385.474C127.051 387.077 128.031 389.352 128.662 391.515L128.711 390.369C129.625 393.89 129.815 397.562 127.67 399.589C126.951 400.259 122.797 400.651 122.801 401.067C122.795 401.278 125.608 401.822 125.878 402.494C128.275 408.378 126.509 412.582 125.379 418.253C124.15 424.483 125.231 431.336 125.779 438.202L125.792 437.539C126.297 442.471 126.532 447.536 125.297 452.381C124.668 454.856 116.471 456.537 116.553 456.878C116.715 457.633 122.223 458.169 123.58 459.705C128.039 464.884 122.148 471.818 124.905 476.751C126.263 479.186 133.255 482.524 134.801 484.924C136.037 486.831 133.291 491.349 136.362 492.195C138.217 492.711 144.175 492.958 144.921 493.571ZM52.5811 427.959C62.0946 428.574 54.2835 424.769 49.1327 425.963C47.9729 426.233 50.1116 427.799 52.5811 427.959ZM74.7115 260.883C71.99 260.859 69.2686 260.835 66.5471 260.812C67.6692 261.316 68.7917 261.805 69.9141 262.31C71.5552 262.073 73.1963 261.842 74.8374 261.61C74.7953 261.368 74.7534 261.126 74.7115 260.883Z" fill="white"/>
<path d="M195.808 532.131C196.296 533.088 192.567 533.559 192.186 534.482C191.054 537.161 189.373 538.476 187.704 540.148L188.574 535.43C187.93 536.006 187.299 536.648 186.748 537.488C185.063 539.986 185.629 547.008 179.478 551.099L179.739 549.191C178.243 546.906 177.384 545.101 172.061 536.189C169.55 532.035 162.476 523.118 152.934 520.508C143.711 518.083 140.005 521.101 139.997 523.072C139.997 523.072 139.997 523.072 139.997 523.073C139.987 523.316 140.018 523.563 140.087 523.815C140.389 525.034 142.723 526.218 145.683 528.555C148.696 530.835 151.348 534.631 151.759 537.375C152.527 542.959 149.324 544.136 146.95 544.981C142.055 546.983 107.323 552.628 105.349 544.317C105.06 543.136 105.01 541.937 105.153 540.738C105.246 540.446 105.253 539.51 105.36 539.223C105.752 537.114 112.888 534.14 112.687 533.072C112.526 532.255 109.549 530.87 109.133 529.777C108.343 527.698 108.891 526.304 107.837 524.633C108.048 524.019 108.153 522.045 108.423 521.454C107.748 520.471 106.3 519.283 103.086 517.587C107.674 517.595 112.275 517.494 116.882 517.308C115.102 515.577 121.293 514.554 121.114 513.635C120.965 512.897 117.526 511.936 117.47 511.223C117.385 510.432 121.357 509.77 120.954 508.34C120.73 507.542 119.472 506.884 117.879 506.358C114.945 504.682 110.848 503.36 110.284 501.76C109.394 499.159 114.941 496.526 112.19 493.565C111.246 493.073 110.302 492.584 109.358 492.098C107.055 491.881 104.752 491.668 102.446 491.465C101.627 490.028 106.357 490.428 106.634 489.44C106.901 488.497 104.066 487.402 103.12 486.647C102.948 486.292 102.867 485.959 102.932 485.658C103.238 484.244 107.054 483.68 107.016 482.845C106.965 481.689 101.844 480.841 100.985 480.241C100.709 479.793 98.1217 478.03 98.0889 477.89C97.9827 477.158 105.042 477.837 105.754 476.945C107.707 474.325 102.122 470.269 99.9778 466.803C99.021 465.269 99.4264 463.545 100.539 461.908C118.72 464.415 132.755 458.084 104.397 460.821C108.405 458.88 100.707 457.685 101.947 455.822C102.756 454.652 106.662 453.623 106.492 451.935C106.439 451.436 106.092 450.934 105.636 450.433C103.292 447.777 98.0994 445.386 114.975 443.817C111.235 440.126 118.397 436.407 100.493 435.915C99.354 434.98 109.847 431.899 111.231 430.702C112.539 429.581 116.89 421.213 117.076 419.887C117.267 418.547 117.419 416.223 115.787 415.224C113.765 413.958 95.2283 414.235 116.669 410.396C115.748 409.143 115.385 408.266 115.509 407.451C115.572 407.058 115.755 406.648 116.052 406.259C116.351 405.889 116.75 405.405 117.298 405.34C117.404 405.258 117.513 405.159 117.624 405.043C118.029 404.61 121.209 404.133 121.177 403.854C121.105 403.275 118.601 402.403 118.17 401.144C117.462 399.049 124.103 397.259 113.833 398.426C111.978 397.167 110.141 395.903 108.316 394.636C110.27 393.989 112.23 393.413 114.19 392.804C111.976 392.232 109.764 391.616 107.556 391.036C122.521 391.038 113.475 386.638 104.98 388.588C107.954 385.879 110.964 383.303 113.996 380.806C130.983 380.713 115.851 375.561 106.625 376.109C106.634 375.829 106.644 375.543 106.654 375.276C111.139 372.797 107.429 370.671 110.456 367.765C113.486 364.851 115.144 365.185 122.961 364.329C122.516 363.646 122.071 363.001 121.628 362.335C118.081 361.737 116.141 361.249 115.297 360.83C111.05 358.841 134.601 358.623 120.935 353.634C134.418 351.915 127.394 347.258 123.346 344.171C122.876 343.811 120.263 343.775 119.462 343.29C117.537 342.123 120.933 339.209 112.501 339.214C114.953 338.234 117.405 337.225 119.857 336.252C118.335 335.406 116.812 334.544 115.29 333.696C112.659 333.666 110.027 333.636 107.395 333.606C116.386 332.052 112.974 329.376 115.136 328.101C115.575 327.846 119.205 327.843 120.207 327.056C121.395 326.136 120.345 324.37 121.495 323.271C117.479 322.78 113.464 322.288 109.449 321.795C107.297 319.766 117.921 319.213 118.763 318.053C118.909 317.844 118.203 313.978 117.98 313.767C116.21 312.041 107.159 312.384 109.172 307.492C109.536 306.62 112.676 305.966 112.814 305.172C113.063 303.775 106.035 299.448 99.4841 299.006C107.718 297.437 104.44 292.846 106.835 291.54C107.571 291.145 112.799 291.162 113.933 289.926C114.858 288.935 110.719 286.258 111.442 285.008C112.23 283.655 116.63 283.253 116.951 282.657C117.25 282.105 113.716 281.484 113.751 280.706C113.92 278.275 119.669 276.149 119.812 274.238C119.935 272.682 116.787 271.155 113.171 269.719C110.258 268.504 107.04 267.402 104.985 266.281C105.679 265.714 107.944 265.2 107.979 264.577C108.477 256.997 110.667 248.523 113.067 241.338C114.179 238.018 128.539 229.718 104.736 231.669C100.594 230.452 110.262 221.95 110.414 220.274C110.546 218.843 107.522 217.727 106.553 216.57C106.377 216.374 106.268 216.178 106.26 215.982C106.096 212.097 109.177 209.331 105.474 204.537C104.506 203.3 99.458 201.954 99.5176 201.229C99.6012 200.35 104.487 199.384 104.798 198.251C105.502 195.506 103.896 190.405 104.741 187.774C104.906 187.293 109.194 187.124 110.535 186.432C115.772 183.761 115.317 180.746 101.624 181.283C109.397 177.838 102.305 174.665 101.871 171.468C100.982 164.722 104.185 152.395 98.4483 146.459C94.8291 142.714 88.6858 142.792 94.0085 137.284C95.1893 136.059 96.7806 134.839 98.1912 133.364C101.511 129.885 112.88 126.757 99.236 123.962C102.82 120.089 100.348 116.878 112.089 114.114C110.206 113.85 108.323 113.586 106.44 113.322C105.525 113.191 104.611 113.061 103.697 112.93C103.636 112.441 103.576 111.959 103.516 111.482C106.193 111.385 108.869 111.289 111.546 111.195C112.331 107.815 101.443 103.16 101.603 100.206C101.832 95.3304 106.602 82.3723 110.485 77.9293C112.53 75.5725 106.817 75.1556 118.648 74.4293C117.858 73.8571 117.068 73.2924 116.277 72.7326C113.72 72.2746 111.162 71.8218 108.603 71.3754C108.622 70.1435 109.387 68.8979 110.257 67.6595C111.436 65.8103 112.822 63.9472 112.869 62.2665C113.011 56.9231 106.264 48.5786 111.159 43.386C112.393 42.0851 117.779 40.6321 117.779 39.3051C117.783 37.3747 108.99 36.5055 108.939 34.0402C108.888 31.0797 114.027 26.5706 116.964 22.7276C118.242 21.0337 119.103 19.4935 118.932 18.2632C118.771 17.0581 115.523 16.3266 115.219 15.4883C113.905 11.9926 114.33 9.21922 109.417 5.92087C118.018 3.12386 128.898 3.91476 139.944 3.3039C148.282 2.9175 167.603 0.808459 174.873 0.0615389C179.989 -0.337593 186.561 1.17299 192.193 0.655855C196.581 7.00673 191.495 8.1409 183.414 11.4102C183.393 16.4997 183.351 21.3679 183.354 26.133C183.354 27.4848 183.355 28.8464 183.358 30.2148C180.262 30.6232 177.165 31.0489 174.068 31.4625C174.062 31.4622 174.055 31.4618 174.048 31.4615C170.391 33.6856 178.248 35.0822 179.983 36.452C191.03 45.1996 188.322 58.6603 184.533 70.7892C182.586 77.5673 180.297 82.8993 179.462 87.2662C178.905 90.0861 182.729 99.429 177.697 101.301C176.384 101.781 171.644 101.781 171.423 102.327C173.636 106.453 175.871 110.504 178.118 114.629C178.599 115.459 179.08 116.331 179.563 117.201C172.052 127.104 178.09 137.78 179.199 148.064C181.676 171.09 184.756 193.899 184.977 217.047C185.018 222.008 184.931 226.892 184.669 231.878C184.379 237.325 187.788 244.467 185.359 249.704C184.354 251.887 176.724 252.597 182.318 255.598C180.268 255.574 178.218 255.55 176.168 255.526C178.577 258.072 183.199 259.77 183.606 262.542C183.866 264.357 184.023 268.511 183.692 271.221C183.598 271.968 183.464 272.625 183.282 273.085C182.868 274.156 179.047 273.661 179.046 274.662C179.072 276.379 184.296 280.151 184.252 282.502C184.212 284.644 179.735 288.185 180.345 289.845C182.509 295.835 188.942 302.419 187.091 308.721C186.567 310.468 181.567 312.639 181.697 313.193C181.97 314.268 186.789 314.659 187.398 315.388C190.478 319.088 184.663 324.698 184.387 328.278C183.55 339.11 185.178 350.613 184.636 361.352C184.595 362.16 184.543 362.947 184.477 363.712C183.866 370.78 184.868 382.05 181.612 387.802C180.903 389.045 175.608 389.067 175.679 390.1C175.761 391.237 179.369 391.518 179.699 391.979C180.154 392.606 180.687 393.351 181.236 394.174C181.788 395.046 182.334 395.729 182.948 397.71C184.783 404.445 185.36 407.963 183.357 410.981C182.709 411.861 178.61 412.683 178.655 413.184C178.67 413.43 181.525 413.806 181.86 414.577C184.815 421.26 183.431 426.293 182.794 432.976C182.368 437.512 182.83 442.253 183.492 447.111C184.705 456.373 186.505 466.238 184.211 476.504C183.427 480.059 175.04 481.891 175.08 482.398C175.146 483.494 180.583 484.705 181.642 487.348C182.651 489.921 182.634 492.891 182.053 495.839C181.481 498.75 180.386 501.502 180.124 501.249C179.083 504.189 178.257 506.612 179.106 508.479C179.771 510.013 183.001 511.861 185.523 513.19C186.641 514.955 187.553 516.513 187.896 517.802C188.746 521.026 184.976 526.867 187.763 528.593C189.455 529.648 195.248 531.09 195.808 532.131ZM111.009 449.852C120.545 449.83 112.458 446.129 107.415 447.872C106.28 448.26 108.534 449.861 111.009 449.852ZM124.906 254.892C122.185 254.859 119.464 254.827 116.742 254.794C117.86 255.382 118.978 255.929 120.096 256.514C121.739 256.246 123.383 255.983 125.026 255.724C124.986 255.453 124.946 255.17 124.906 254.892Z" fill="white"/>
<path d="M242.804 494.218C244.328 496.099 242.264 500.789 242.906 503.884C244.399 511.104 243.808 516.139 242.961 520.248C244.165 525.29 239.265 538.012 238.024 543.045C237.094 543.055 236.138 543.045 235.381 543.166C234.759 543.258 234.518 543.627 234.29 543.527C234.173 543.479 234.059 543.304 233.855 542.984C233.649 542.674 233.353 542.187 232.815 541.864L233.352 538.156C232.394 535.948 230.436 537.601 227.39 538.317C224.319 539.213 220.019 540.014 213.948 540C213.948 540 213.948 540 213.947 540C213.704 540 213.458 539.999 213.209 539.996C208.488 539.947 203.335 538.947 197.997 538.789C192.658 538.596 158.169 538.786 156.248 536.884C155.233 535.678 156.05 533.981 157.746 530.437C157.91 529.927 157.922 528.293 158.128 527.799C160.769 524.296 164.722 521.745 164.824 520.701C164.953 519.437 162.519 516.931 162.568 515.282C162.686 511.494 164.309 509.955 163.026 506.699L159.646 522.306C158.649 522.963 157.146 523.898 154.969 525.567C159.693 526.667 164.494 526.728 168.803 525.405C167.947 526.067 168.897 525.797 169.787 524.955C170.694 524.146 171.606 522.917 171.281 522.679C170.735 522.27 167.463 523.705 166.9 523.065C166.248 522.347 168.759 519.058 167.273 517.501C164.875 514.94 156.23 518.256 154.152 516.531C152.888 515.473 153.476 513.074 153.384 511.037C153.415 509.888 153.081 508.86 151.488 508.364C150.425 508.422 149.36 508.474 148.294 508.519C146.205 509.515 144.119 510.518 142.036 511.527C140.574 510.644 144.829 508.522 144.515 507.359C144.149 505.988 139.671 506.702 139.376 505.737C139.136 504.941 142.214 502.791 141.686 501.841C140.933 500.438 136.072 502.251 134.89 501.676C134.419 501.541 129.858 495.601 129.735 495.087C128.805 492.007 135.683 490.221 135.806 487.614C136.057 482.537 132.925 477.543 130.653 470.255C129.629 468.823 128.621 467.468 127.96 466.118C127.011 464.202 127.449 462.185 128.613 460.291C146.71 463.555 160.937 457.226 132.505 459.188C136.582 457.123 128.948 455.468 130.293 453.432C131.171 452.141 135.13 451.32 135.083 449.422C134.972 446.082 123.944 441.85 144.197 441.742C140.806 437.623 148.326 434.649 130.578 432.222C129.548 431.131 140.318 429.245 141.825 428.281C142.693 427.702 145 424.754 146.708 422.424C147.807 420.673 148.695 419.108 148.833 418.574C149.187 417.202 149.654 414.771 148.189 413.458C146.373 411.867 128.023 409.022 149.838 408.379C148.396 405.145 149.138 404.09 151.962 401.593C152.474 401.137 155.672 401.471 155.71 401.179C155.782 400.577 153.55 399.262 153.399 398.161C153.154 396.337 159.993 396.247 149.726 395.071C148.165 393.675 146.607 392.291 145.057 390.88C147.088 390.756 149.119 390.633 151.151 390.511C149.087 389.592 147.025 388.671 144.965 387.738C159.651 390.616 151.555 385.079 142.866 385.185C144.089 384.54 145.307 383.929 146.531 383.293C148.677 382.361 150.817 381.434 152.952 380.486C169.742 383.152 155.487 376.464 146.261 375.709C146.303 375.498 146.344 375.28 146.386 375.067C151.107 373.758 147.656 371.548 150.927 369.565C154.198 367.548 155.816 367.927 163.667 368.006C163.281 367.383 162.893 366.771 162.505 366.152C141.461 361.142 178.365 365.09 162.43 358.44C175.991 357.869 169.255 353.083 165.351 350.112C164.898 349.764 162.29 349.591 161.513 349.116C159.645 347.97 163.153 345.53 154.73 345.141C157.217 344.364 159.701 343.61 162.186 342.808C160.694 341.983 159.201 341.164 157.707 340.335C155.078 340.21 152.449 340.086 149.82 339.961C149.851 339.957 149.883 339.954 149.914 339.95C158.829 338.905 155.523 336.361 157.707 335.292C158.151 335.077 161.78 335.18 162.8 334.487C164.01 333.675 162.999 332.038 164.17 331.058C160.166 330.512 156.161 329.969 152.156 329.43C150.041 327.545 160.671 327.262 161.531 326.214C161.682 326.026 161.03 322.462 160.807 322.263C159.057 320.646 150.009 320.835 152.063 316.388C152.434 315.596 155.578 315.023 155.722 314.298C155.981 313.014 148.971 308.985 142.42 308.548C150.659 307.171 147.383 302.927 149.774 301.743C150.51 301.384 155.738 301.387 156.87 300.263C157.792 299.347 153.643 296.892 154.36 295.728C155.14 294.495 159.537 294.097 159.855 293.544C160.151 293.022 156.612 292.483 156.641 291.762C156.792 289.518 162.519 287.527 162.641 285.747C162.83 283.169 152.35 280.806 147.702 278.64C148.385 278.118 150.641 277.606 150.664 277.044C150.799 274.498 151.147 271.828 151.642 269.166C152.484 264.616 153.751 259.957 155.064 256.143C155.299 255.463 156.325 254.524 157.376 253.685C157.902 253.262 158.435 252.892 158.877 252.514C159.322 252.14 159.649 251.619 159.766 250.288C160.463 248.174 158.09 246.786 146.123 248.609C141.909 247.878 150.923 238.963 150.966 237.313C151.006 235.698 146.671 234.674 146.53 233.396C146.112 229.514 149.019 226.622 145.086 221.899C144.06 220.68 138.958 219.496 138.987 218.715C139.034 217.773 143.879 216.596 144.152 215.373C144.297 214.682 144.31 213.848 144.26 212.939C144.131 211.197 143.197 208.377 143.74 206.365C143.881 205.894 148.156 205.514 149.461 204.777C154.557 201.887 153.98 198.859 140.321 199.957C147.944 196.102 140.764 193.097 140.26 189.845C139.963 187.873 140.006 185.444 140.089 182.862C140.296 176.863 140.667 169.804 136.543 165.857C132.888 162.352 126.745 162.483 132.017 157.223C133.186 156.057 134.767 154.892 136.164 153.478C139.452 150.152 150.795 147.131 137.127 144.58C140.678 140.885 138.179 137.883 149.895 135.204C147.094 134.848 144.294 134.491 141.493 134.132C141.428 133.67 141.364 133.208 141.3 132.735C143.976 132.621 146.652 132.508 149.328 132.398C149.971 129.625 142.269 125.982 139.999 122.936C139.583 122.457 139.345 122.014 139.369 121.613C139.629 117.301 144.22 105.658 148.061 101.066C150.088 98.7061 144.38 98.2405 156.213 97.4658C155.425 96.8722 154.639 96.2722 153.855 95.6674C151.302 95.1656 148.751 94.6551 146.2 94.1356C146.301 90.8379 150.605 87.2445 150.858 84.1799C150.883 83.8776 150.888 83.5638 150.877 83.2393C150.825 80.6738 150.04 77.4389 149.495 74.3414C148.954 71.3085 148.536 68.4201 148.741 69.6809C149.106 67.5186 149.81 65.7419 150.875 64.4258C152.34 62.5765 157.917 61.6262 158.088 60.3474C158.339 58.5077 149.739 56.5188 149.902 54.6216C150.157 51.8739 158.609 48.3991 160.316 45.0704C160.557 44.582 160.67 44.1169 160.616 43.6863C160.491 42.6289 157.268 41.838 156.984 41.0985C155.758 38.0033 156.234 35.5438 151.369 32.4983C160.001 30.277 170.866 31.2022 181.916 30.8758C190.255 30.7024 209.603 29.0752 216.873 28.0744C221.991 27.5921 228.555 29.4258 234.19 28.8403C238.496 35.8351 233.375 36.5038 225.227 39.6019C225.114 43.6419 224.959 47.5617 224.762 51.5265C224.624 54.0749 224.444 56.6426 224.212 59.2369C221.081 59.4632 217.953 59.6453 214.823 59.8196C214.816 59.8186 214.81 59.8177 214.803 59.8167C210.928 61.8173 218.562 64.1157 220.099 65.8183C224.359 70.2771 225.646 76.455 226.623 76.4098C226.507 81.7548 226.099 83.7694 225.711 85.5692C225.3 87.3069 224.742 88.7626 224.078 90.4032C221.7 97.1048 218.2 103.824 217.138 109.435C216.628 112.043 220.507 121.207 215.457 123.012C214.143 123.47 209.403 123.475 209.18 123.992C209.386 124.362 209.592 124.736 209.797 125.113C212.275 129.154 214.824 133.389 217.393 137.606C209.967 146.962 216.095 156.919 217.306 166.553C217.953 171.694 218.637 176.865 219.307 182.006C220.547 191.933 222.108 198.705 223.344 211.072C224.444 220.879 225.593 231.493 225.843 242.781C225.865 243.909 226.071 245.118 226.356 246.412C226.416 245.918 226.575 246.546 226.756 247.365C226.935 248.185 227.114 249.053 227.278 249.838C227.606 251.41 227.891 252.793 228.086 254.095C228.474 256.682 228.502 259.023 227.628 261.081C226.699 263.28 219.097 264.203 224.775 266.977C222.725 267.011 220.676 267.046 218.626 267.08C219.395 267.852 220.373 268.476 221.371 269.145C223.593 270.542 225.914 271.897 226.236 273.737C226.624 276.019 226.893 281.996 226.091 283.987C225.691 285.031 221.864 284.599 221.875 285.562C221.923 287.215 227.182 290.796 227.153 293.075C227.128 295.139 222.666 298.566 223.28 300.153C225.459 305.894 231.875 312.287 229.965 318.397C229.426 320.085 224.401 322.131 224.524 322.665C224.783 323.71 229.596 324.161 230.195 324.883C233.223 328.545 227.299 333.931 226.924 337.448C226.707 339.484 226.572 341.59 226.485 343.69C226.083 353.432 226.667 363.689 224.945 373.441C223.958 379.125 223.252 388.095 220.794 394.686C220.084 396.447 219.235 398.027 218.185 399.301C217.227 400.453 212.041 399.382 211.89 400.453C211.722 401.653 215.173 402.779 215.386 403.359C216.837 407.528 219.548 415.779 215.68 418.807C214.93 419.394 210.765 419.556 210.751 419.955C210.736 420.155 213.522 420.809 213.768 421.451C214.391 423.078 214.691 424.574 214.771 426.038C214.932 430.388 213.651 433.905 212.728 438.014C210.469 447.998 214.431 459.651 212.966 470.804C212.831 470.677 212.639 470.772 212.407 471.01C211.815 471.514 203.911 473.958 204.038 474.184C204.292 474.662 209.756 473.935 211.286 474.568C216.223 476.521 212.426 483.615 216.523 486.831C216.541 486.839 216.56 486.847 216.58 486.856C218.375 487.724 225.197 485.773 227.041 485.909C227.803 486.016 227.893 486.933 228.728 488.656C229.515 490.275 231.162 493.121 233.078 493.56C235.388 494.053 241.134 492.218 242.804 494.218ZM139.743 447.555C149.25 448.26 141.484 443.879 136.317 445.234C135.152 445.561 137.274 447.365 139.743 447.555ZM167.367 267.846C164.645 267.884 161.924 267.922 159.203 267.96C160.116 268.35 161.029 268.751 161.942 269.163C162.162 269.257 162.381 269.351 162.601 269.446C163.165 269.351 163.73 269.257 164.294 269.162C165.366 268.973 166.437 268.786 167.508 268.6C167.461 268.345 167.414 268.094 167.367 267.846Z" fill="white"/>
<path d="M289.345 535.46C289.994 536.155 286.411 537.064 286.209 537.894C285.323 541.32 282.827 542.513 281.348 545.659C280.592 547.314 280.609 549.937 279.898 553.111C279.541 554.692 279.009 556.346 278.067 558.316C277.589 559.342 277.021 560.409 276.234 562.032C275.831 562.885 275.39 563.828 274.739 565.445C274.421 566.208 274.017 567.267 273.543 568.365C273.07 569.481 272.487 570.697 272.436 570.128C272.063 565.868 270.137 562.646 267.578 562.087C265.011 561.405 261.838 562.062 257.948 562C257.948 562 257.948 562 257.947 562C257.704 562 257.458 561.999 257.209 561.996C252.489 561.759 247.333 561.567 242.006 561.226C236.852 560.491 201.646 560.123 201.533 550.93C201.549 550.515 201.587 550.086 201.651 549.645C199.437 555.463 201.783 553.286 203.509 552.308C205.375 551.052 207.391 549.62 207.221 549.094C206.979 548.299 203.878 547.224 203.35 546.226C201.65 542.901 203.977 541.18 195.522 538.002C200.03 536.892 204.538 535.694 209.044 534.584C206.99 532.933 212.941 530.596 212.627 529.607C212.37 528.816 208.828 528.301 208.673 527.443C208.48 526.497 212.326 525.122 211.767 523.386C210.869 520.598 201.617 519.974 200.457 518.304C199.456 516.787 202.806 514.784 202.063 512.742C201.915 512.361 201.606 511.983 201.069 511.614C200.053 511.33 199.036 511.045 198.02 510.758C195.716 510.942 193.412 511.124 191.107 511.306C190.044 510.184 194.766 509.73 194.859 508.675C194.97 507.476 190.5 506.838 190.526 506.017C190.551 505.355 194.144 504.416 193.925 503.577C193.623 502.325 188.441 502.566 187.476 501.882C187.101 501.596 184.269 496.569 184.229 496.275C184.036 494.074 191.126 493.971 191.754 492.242C193.467 487.453 187.756 482.536 185.606 478.094C184.643 476.128 185.062 474.034 186.201 472.087C204.339 475.241 218.481 468.407 190.079 470.901C194.124 468.699 186.463 467.147 187.764 465.063C188.613 463.714 192.552 462.79 192.454 460.875C192.253 457.451 181.068 453.719 201.298 452.764C197.739 448.758 205.082 445.286 187.226 443.826C186.137 442.795 196.777 440.151 198.223 438.999C199.585 437.908 204.395 429.499 204.664 428.123C204.933 426.746 205.226 424.337 203.659 423.179C201.722 421.723 183.203 420.696 204.856 418.112C203.105 415.103 203.724 414.016 206.24 411.223C206.694 410.718 209.909 410.658 209.912 410.36C209.912 409.747 207.536 408.705 207.246 407.616C206.771 405.824 213.535 404.807 203.204 405.007C201.471 403.819 199.738 402.636 198.006 401.457C200 401.042 201.993 400.627 203.987 400.214C201.814 399.588 199.64 398.955 197.467 398.32C212.418 399.053 203.592 394.607 195.015 396.058C198.106 393.784 201.197 391.459 204.288 389.181C221.28 389.499 206.243 384.133 197.005 384.606C197.018 384.344 197.031 384.084 197.044 383.823C201.557 381.533 197.861 379.414 200.887 376.621C203.914 373.802 205.569 374.075 213.383 373.214C212.934 372.565 212.485 371.908 212.037 371.24C190.604 367.819 227.702 368.346 211.252 362.495C224.714 360.541 217.628 355.89 213.535 352.853C213.059 352.488 210.446 352.489 209.638 352.008C207.696 350.822 211.046 347.879 202.615 347.985C205.05 346.929 207.486 345.894 209.921 344.881C209.893 344.866 209.864 344.851 209.836 344.836C208.328 343.989 206.819 343.161 205.311 342.349C202.679 342.365 200.048 342.381 197.416 342.397C206.378 340.718 202.918 338.024 205.055 336.701C205.488 336.435 209.118 336.353 210.104 335.535C211.274 334.608 210.189 332.801 211.316 331.686C207.291 331.282 203.267 330.884 199.242 330.456C197.046 328.438 207.655 327.678 208.47 326.47C208.613 326.268 207.816 322.411 207.586 322.178C205.771 320.484 196.738 321.051 198.614 316.148C198.953 315.246 202.072 314.549 202.186 313.735C202.394 312.321 195.221 308.392 188.655 308.259C192.739 307.372 193.917 305.895 194.356 304.657C194.576 304.046 194.612 303.526 194.742 303.212C194.807 303.037 194.896 302.937 195.031 302.671C195.167 302.426 195.335 301.826 195.604 301.177C195.63 301.116 195.664 301.055 195.705 300.995C196.732 300.85 201.595 300.682 202.616 299.925C203.497 299.41 199.086 297.056 199.664 295.368C200.303 293.666 204.652 292.789 204.917 292.051C205.165 291.349 201.59 290.923 201.564 289.976C201.546 287.037 207.183 284.372 207.246 282.246C207.26 281.843 207.09 281.453 206.773 281.056C204.686 278.599 196.219 276.461 192.156 274.352C192.831 273.747 195.08 273.121 195.096 272.495C195.376 264.644 197.311 255.925 199.618 248.073C200.15 246.237 204.036 243.067 204.771 240.581C205.497 238.077 203.14 236.181 191.28 237.21C189.216 236.467 190.652 233.407 192.716 230.337C194.794 227.148 197.308 225.779 197.394 225.164C197.521 224.364 195.489 223.601 194.229 222.861C193.683 222.418 193.284 221.99 193.269 221.568C193.127 217.347 196.241 214.441 192.633 209.277C191.69 207.942 186.673 206.419 186.75 205.646C186.854 204.706 191.761 203.82 192.101 202.629C192.872 199.77 191.411 194.456 192.328 191.82C192.506 191.337 196.797 191.282 198.156 190.621C203.464 188.051 203.082 185.038 189.38 185.245C197.233 182.027 190.204 178.771 189.81 175.728C189.775 175.45 189.748 175.162 189.728 174.865C189.272 168.445 191.94 156.662 186.44 150.9C182.814 147.085 176.669 147.184 181.984 141.506C183.164 140.245 184.754 138.985 186.165 137.451C189.484 133.818 200.86 130.648 187.234 127.588C189.535 124.957 189.382 122.574 192.038 120.363C193.545 119.186 195.953 118.122 200.226 117.164C197.437 116.699 194.648 116.232 191.86 115.765C191.81 115.245 191.761 114.721 191.712 114.212C194.391 114.157 197.07 114.103 199.748 114.054C200.612 110.473 189.886 105.167 190.168 102.008C190.438 98.7007 192.637 92.4256 194.927 88.8534C196.36 85.3026 198.024 81.9898 199.541 79.9775C201.693 77.159 196.029 76.3412 207.918 75.8198C207.175 75.0539 206.438 74.2829 205.709 73.485C203.201 72.7429 200.7 71.9662 198.203 71.175C198.52 68.0182 201.397 64.3167 202.972 62.0703C203.351 62.1188 203.644 61.9119 203.685 61.549C204.003 59.961 201.496 56.1936 202.869 45.6716C202.426 43.8396 202.665 41.7016 205.019 40.371C206.365 39.62 211.837 39.2502 211.955 38.1721C212.127 36.6101 203.465 34.9093 203.544 33.1245C203.553 32.93 203.604 32.7327 203.69 32.5291C204.938 30.0285 214.484 23.6564 213.987 20.1382C213.84 19.003 210.599 18.2603 210.3 17.4749C209.007 14.187 209.422 11.543 204.477 8.42353C213.047 5.69005 223.934 6.26937 234.973 5.52554C243.305 5.02979 262.6 2.59322 269.873 2.05212C274.988 1.7278 281.564 2.94824 287.194 2.5128C291.642 8.13966 286.584 9.99252 278.508 13.4518C278.485 20.4609 278.336 27.1724 278.008 34.221C274.888 34.5827 271.77 34.916 268.648 35.2579C268.641 35.2572 268.635 35.2566 268.628 35.2559C264.834 37.5545 272.565 39.5845 274.13 41.5313C274.15 41.556 274.171 41.5809 274.191 41.6057C279.84 48.29 280.708 56.4066 278.186 65.9524C278.666 63.1139 277.438 67.8343 275.051 75.8392C272.206 80.9711 269.39 85.4419 268.367 90.4883C268.29 90.8648 268.301 91.3508 268.361 91.9489C268.675 96.9762 270.533 104.475 266.174 105.816C264.845 106.233 260.107 106.09 259.867 106.614C262.376 111.654 264.974 116.544 267.633 121.484C267.329 121.863 267.047 122.25 266.784 122.646C260.45 131.714 266.115 142.334 267.194 152.378C268.014 160.079 268.912 167.698 269.64 175.813C271.121 192.762 271.883 208.306 271.984 223.536C272.002 226.385 271.849 230.145 271.664 232.573C271.492 234.933 271.357 236.507 271.201 238.565C271.126 239.529 271.221 240.589 271.398 241.705C272.065 246.038 273.872 251.163 272.051 255.261C271.095 257.431 263.484 258.336 269.155 261.206C267.105 261.237 265.055 261.267 263.005 261.298C265.481 263.808 270.148 265.396 270.633 268.191C271.031 270.55 271.382 276.738 270.631 278.735C270.301 279.64 267.327 279.518 266.608 280.102C266.504 280.186 266.448 280.284 266.452 280.4C266.537 282 271.92 285.087 272.022 286.923C272.101 288.645 267.913 291.572 268.733 293.685C269.19 294.812 269.781 296.304 270.385 298.033C273.499 303.171 277.921 309.679 276.535 315.138C276.064 316.969 271.123 319.389 271.268 319.97C271.568 321.053 276.396 321.35 277.024 322.118C280.195 325.874 274.504 331.828 274.296 335.522C274.13 338.535 274.135 341.472 274.223 344.576C274.492 353.775 275.545 363.215 274.894 372.232C274.352 379.746 275.215 392.297 271.589 399.254C270.806 400.748 265.52 400.352 265.521 401.609C265.522 403.003 269.093 403.762 269.382 404.417C271.405 408.925 275.014 418.907 271.362 423.173C270.661 423.984 266.519 424.571 266.534 425.058C266.534 425.304 269.36 425.861 269.648 426.635C272.202 433.464 270.549 438.434 269.57 445.124C267.718 457.937 272.943 472.794 270.044 486.261C269.414 489.212 261.213 491.159 261.294 491.589C261.455 492.5 266.962 493.112 268.315 494.931C272.308 500.451 267.929 507.615 268.966 513.251C269.083 513.909 269.27 514.538 269.545 515.134C270.884 517.954 277.84 522.099 279.357 524.917C280.571 527.225 277.757 532.62 280.811 533.654C282.657 534.289 288.61 534.703 289.345 535.46ZM197.057 458.835C206.583 459.25 198.674 455.04 193.557 456.602C192.405 456.949 194.584 458.726 197.057 458.835ZM211.745 262.035C209.024 262.076 206.302 262.116 203.581 262.157C204.714 262.718 205.847 263.275 206.98 263.835C208.615 263.517 210.251 263.201 211.887 262.886C211.839 262.603 211.792 262.319 211.745 262.035Z" fill="white"/>
<path d="M330.181 480.294C330.815 480.864 327.216 481.489 326.998 482.121C326.044 484.83 323.527 485.715 321.994 488.226C321.355 489.279 321.216 490.942 320.767 493.013C320.541 494.061 320.239 495.209 319.725 496.64C319.466 497.371 319.158 498.146 318.742 499.217C318.301 500.361 317.888 501.39 316.831 504.489L317.456 500.827C315.271 495.812 309.795 500.541 298.948 500C298.948 500 298.948 500 298.947 500C298.704 500 298.458 499.999 298.209 499.997C293.488 499.946 288.335 499.105 282.997 498.959C277.661 498.738 243.161 499.003 241.265 496.773C240.519 495.727 240.809 494.165 241.94 491.211C242.138 490.692 242.165 488.984 242.406 488.484C242.397 489.579 242.618 489.932 242.862 490.18C243.112 490.409 243.412 490.468 243.729 490.468C244.363 490.458 245.062 490.227 245.696 489.971C246.964 489.457 247.98 488.827 247.863 488.54C247.631 487.937 244.548 486.99 244.037 486.167C242.39 483.465 244.748 482.124 236.361 479.249C240.89 478.473 245.419 477.682 249.949 476.883C247.932 475.47 253.934 473.756 253.646 472.938C253.408 472.272 249.882 471.713 249.748 471.028C249.579 470.243 253.459 469.23 252.947 467.816C252.569 466.723 250.4 465.985 248.066 465.323L248.039 466.218C245.29 465.563 242.319 465.034 241.697 464.288C240.502 462.833 245.565 460.688 242.334 458.833C241.319 458.586 240.304 458.353 239.289 458.112C236.985 458.241 234.68 458.369 232.375 458.496C231.316 457.584 236.04 457.248 236.137 456.423C236.253 455.436 231.786 454.894 231.815 454.232C231.843 453.703 235.439 453.01 235.223 452.318C234.925 451.302 229.743 451.462 228.779 450.912C228.407 450.685 225.587 446.685 225.546 446.469C225.355 444.776 232.446 444.678 233.073 443.33C234.784 439.592 229.053 435.788 226.853 432.589C225.869 431.157 226.258 429.687 227.36 428.324C245.555 430.138 259.549 424.798 231.212 427.416C234.736 426.009 229.167 425.264 228.651 424.381C228.578 424.185 228.596 423.981 228.739 423.767C229.528 422.604 233.423 421.641 233.245 420.043C232.904 417.226 221.587 414.7 241.758 412.989C238.05 409.935 245.244 406.877 227.355 406.842C226.228 406.182 236.739 403.803 238.126 402.998C239.291 402.245 242.534 398.508 243.946 399.729C244.018 399.229 244.056 398.853 244.044 398.642C243.946 397.116 243.701 394.594 241.936 393.717C239.764 392.72 221.274 394.626 242.198 388.425C239.995 385.745 240.461 384.564 242.619 381.605C243.011 381.071 246.196 380.628 246.165 380.356C246.098 379.796 243.626 379.113 243.228 378.137C242.577 376.526 249.224 374.949 238.959 376.14C237.127 375.218 235.302 374.285 233.483 373.35C235.436 372.795 237.392 372.256 239.348 371.718C238.844 371.631 238.34 371.543 237.836 371.456C236.143 371.34 234.449 371.238 232.755 371.145C247.69 370.2 238.623 368.336 230.193 370.182C233.125 368.555 235.985 366.561 238.806 364.338C255.688 362.4 240.192 359.884 231.066 361.307C231.048 361.05 231.029 360.792 231.01 360.527C234.336 358.276 232.572 356.618 233.068 353.945C233.231 353.669 233.548 353.358 234.153 352.977C237.028 351.067 238.669 350.938 246.386 349.557C245.891 349.11 245.392 348.641 244.892 348.16C223.287 347.46 260.216 344.33 243.406 340.594C256.688 337.839 249.376 334.445 245.18 331.865C244.692 331.575 242.08 331.686 241.257 331.293C239.272 330.332 242.541 327.586 234.119 327.941C236.528 326.953 238.941 325.969 241.358 325.012C239.807 324.301 238.26 323.628 236.713 322.899C234.081 322.952 231.45 323.005 228.819 323.058C235.215 321.876 235.254 320.399 235.543 319.197C235.658 318.767 235.811 318.37 236.418 318.054C236.85 317.833 240.48 317.743 241.464 317.078C242.631 316.285 241.542 314.846 242.666 313.913C238.641 313.596 234.616 313.274 230.591 312.947C228.394 311.319 239.003 310.626 239.819 309.644C239.96 309.46 239.169 306.276 238.941 306.103C237.133 304.698 228.092 305.177 229.999 301.063C230.344 300.334 233.469 299.711 233.59 299.057C233.809 297.891 226.692 294.414 220.134 294.165C228.333 292.702 224.964 288.913 227.334 287.781C228.062 287.44 233.289 287.352 234.4 286.31C235.306 285.468 231.118 283.301 231.819 282.223C232.582 281.084 236.974 280.684 237.285 280.173C237.575 279.691 234.03 279.245 234.052 278.585C234.181 276.528 239.896 274.685 240.012 273.065C240.192 270.717 229.717 268.522 225.085 266.417C225.772 265.914 228.032 265.468 228.061 264.929C228.198 262.868 228.504 260.688 228.953 258.401C229.912 254.099 231.403 249.703 233.018 245.539C234.094 242.769 248.494 235.572 224.687 237.011C220.517 235.954 230.433 227.445 230.762 225.703C230.858 225.086 230.395 224.475 229.763 223.868C228.601 223.053 226.879 222.269 226.888 221.624C226.936 218.599 230.153 216.63 226.696 212.558C225.791 211.505 220.817 210.125 220.911 209.538C221.038 208.833 225.96 208.36 226.326 207.443C227.16 205.265 225.803 200.945 226.78 198.774C226.968 198.38 231.258 198.494 232.631 197.996C236.567 196.573 237.456 194.812 232.234 193.807C230.341 193.459 227.647 193.205 224.006 193.09C231.934 190.855 225.003 187.889 224.709 185.333C224.126 179.937 227.795 170.1 222.279 164.934C218.801 161.686 212.661 161.475 218.179 157.147C219.141 156.392 220.357 155.65 221.544 154.798C221.865 154.591 222.185 154.374 222.496 154.146C225.922 151.651 237.368 149.594 223.798 146.913C227.47 143.999 225.053 141.429 236.825 139.561C234.034 139.181 231.242 138.799 228.45 138.419C228.396 138.033 228.341 137.649 228.286 137.262C230.963 137.243 233.64 137.224 236.317 137.205C237.141 134.476 226.286 130.553 226.455 128.183C226.733 124.184 231.36 114.246 235.333 109.39C235.737 108.922 235.863 108.406 235.876 108.013C235.901 106.778 234.042 106.32 243.591 106.188C242.819 105.638 242.046 105.091 241.275 104.543C238.736 104.006 236.197 103.472 233.658 102.93C233.815 100.198 238.113 97.5258 238.314 95.1256C238.682 90.7169 232.238 83.7756 237.047 81.0907C237.799 80.6575 240.125 80.2649 241.782 79.8929C242.817 79.4441 243.598 79.002 243.591 78.5771C243.568 76.9587 234.766 76.2335 234.68 74.1774C234.548 70.6223 245.056 64.5739 244.397 61.3339C244.207 60.3655 240.944 59.7986 240.618 59.1327C239.215 56.3454 239.56 54.1221 234.554 51.5383C243.071 49.1604 253.971 49.5879 264.997 48.9163C273.32 48.4521 292.597 46.4409 299.873 46.0406C304.988 45.7921 311.565 46.7256 317.195 46.3886C321.669 50.6929 316.665 52.2204 308.668 55.0061C308.819 60.5389 308.911 65.8086 309.018 71.0255C305.929 71.3715 302.84 71.7255 299.751 72.0716C299.744 72.0713 299.737 72.0711 299.73 72.0708C296.107 73.9219 303.981 75.0775 305.734 76.2132C308.592 78.0662 310.554 80.1566 311.833 82.3966C316.647 94.9965 309.803 105.776 306.121 113.903C305.335 114.956 304.65 116.95 304.274 118.51C303.744 120.728 307.575 128.732 302.527 130.235C301.212 130.616 296.473 130.557 296.25 131.011C298.911 135.24 301.574 139.496 304.227 143.793C299.834 148.549 299.808 153.584 300.687 158.78C301.357 162.492 302.576 166.246 302.887 169.945C303.674 179.272 304.558 188.76 305.043 198.376C305.629 208.462 306.022 218.993 305.206 230.104C305.031 232.598 304.859 235.164 304.608 238.297C304.282 242.239 307.754 248.107 305.363 252.523C304.372 254.37 296.748 254.964 302.352 257.556C300.303 257.527 298.253 257.497 296.203 257.467C297.448 258.594 299.278 259.534 300.814 260.533C302.264 261.317 303.457 262.151 303.665 263.192C304.012 264.964 304.252 269.871 303.458 271.532C303.059 272.382 299.231 272.032 299.244 272.843C299.296 274.226 304.577 277.217 304.574 279.138C304.569 280.873 300.157 283.822 300.799 285.175C303.074 290.034 309.64 295.302 307.925 300.517C307.439 301.959 302.487 303.852 302.63 304.302C302.926 305.172 307.752 305.408 308.378 305.991C311.537 308.957 305.85 313.724 305.654 316.687C305.615 317.265 305.587 317.877 305.568 318.449C305.278 327.221 307.367 333.954 307.504 342.561C307.529 344.083 307.69 346.137 307.819 348.684C307.705 350.477 308.925 358.975 306.646 365.261C306.564 365.488 306.403 365.686 306.185 365.862C304.69 366.649 300.69 366.873 300.757 367.66C300.846 368.662 304.452 368.859 304.782 369.274C307.073 372.33 311.461 377.746 308.345 380.543C307.741 381.103 303.752 382.261 303.824 382.53C303.854 382.667 306.68 382.369 307.049 382.688C307.457 383.046 307.798 383.383 308.082 383.705C311.867 394.682 310.039 397.882 309.633 403.356C308.987 409.105 310.135 414.645 311.16 420.296C312.178 427.074 312.724 432.834 311.35 438.432C310.732 440.919 302.531 442.558 302.612 442.9C302.774 443.65 308.281 444.162 309.632 445.698C314.072 450.816 308.102 457.508 310.794 462.245C311.615 463.7 314.587 465.512 317.095 467.191C317.153 467.451 317.004 468.259 317.054 468.52C318.564 469.635 319.898 470.685 320.448 471.577C321.6 473.439 318.662 477.625 321.691 478.581C323.522 479.158 329.464 479.661 330.181 480.294ZM237.76 418.139C247.292 418.029 239.224 414.945 234.175 416.474C233.038 416.815 235.286 418.174 237.76 418.139ZM244.945 256.659C242.224 256.615 239.503 256.571 236.782 256.526C237.902 256.997 239.021 257.461 240.141 257.927C241.783 257.729 243.425 257.534 245.068 257.336C245.027 257.109 244.986 256.883 244.945 256.659Z" fill="white"/>
<path d="M357.335 510.633C357.974 511.17 354.384 511.741 354.176 512.356C353.27 514.869 350.777 515.771 349.332 518.129C348.803 518.991 348.683 520.289 348.436 521.793L348.408 519.747C348.268 520.375 348.086 520.934 347.62 520.822C347.388 520.782 347.064 520.449 346.653 520.187C346.451 520.078 346.236 520.03 346.069 520.416C345.899 520.784 345.797 521.686 345.67 522.86C343.884 533.11 338.139 532.45 327.948 533C327.948 533 327.948 533 327.947 533C327.704 533 327.458 532.999 327.209 532.997C322.489 532.972 317.334 531.893 311.993 531.757C306.652 531.719 272.171 531.614 270.225 531.369C269.574 531.333 269.635 531.357 270.269 532.461C270.503 532.866 270.763 532.978 270.977 532.629C271.195 532.296 271.393 531.617 271.626 530.95C272.084 529.569 272.683 528.299 273.271 527.298C274.45 525.3 275.532 524.073 275.359 523.532C275.243 523.174 274.736 522.813 274.112 522.427C274.157 522.182 274.04 521.428 274.095 521.186C273.064 520.594 271.697 519.953 271.353 519.317C269.601 515.996 271.927 514.344 263.501 511.056C268.022 509.95 272.547 508.899 277.077 507.877C275.055 506.238 281.076 504.144 280.799 503.2C280.569 502.435 277.051 501.775 276.93 500.975C276.776 500.049 280.679 498.911 280.204 497.285C279.445 494.627 270.241 493.571 269.165 492.011C268.052 490.403 273.216 488.461 270.045 486.593C269.039 486.331 268.032 486.074 267.024 485.82C264.716 485.864 262.409 485.902 260.102 485.935C259.069 485.087 263.798 484.953 263.911 484.225C264.044 483.368 259.582 482.822 259.615 482.28C259.646 481.837 263.245 481.28 263.026 480.673C262.986 480.555 262.858 480.455 262.665 480.369C261.416 479.687 257.414 479.771 256.577 479.263C256.205 479.037 253.362 474.753 253.318 474.521C253.114 472.701 260.204 472.526 260.82 471.057C262.497 466.973 256.72 462.834 254.49 459.103C253.492 457.431 253.87 455.66 254.966 453.932C273.168 456.258 287.155 449.92 258.817 452.811C262.812 450.81 255.116 449.628 256.366 447.76C257.182 446.543 261.097 445.624 260.951 443.894C260.665 440.85 249.398 437.556 269.606 436.227C268.679 435.29 268.462 434.356 268.359 433.475C268.058 430.934 268.727 428.9 255.409 428.025C254.309 427.066 264.928 424.551 266.368 423.487C267.719 422.47 272.498 414.817 272.769 413.577C273.036 412.329 273.328 410.15 271.763 409.097C269.826 407.781 251.308 406.797 272.968 404.507C271.226 401.766 271.851 400.791 274.383 398.25C274.841 397.789 278.056 397.761 278.061 397.493C278.065 396.936 275.697 395.972 275.417 394.969C274.958 393.317 281.734 392.455 271.401 392.517C270.035 391.634 268.671 390.726 267.308 389.83C266.956 389.588 266.604 389.35 266.252 389.115C268.252 388.765 270.253 388.386 272.253 388.038C270.092 387.395 267.932 386.748 265.773 386.076C280.699 387.148 271.992 382.614 263.38 383.774C266.536 381.559 269.721 379.309 272.918 377.271C289.873 378.363 275.114 372.76 265.865 372.708C265.891 372.478 265.916 372.252 265.941 372.027C270.554 370.276 266.951 368.323 270.084 366.073C271.849 364.804 273.14 364.339 275.336 364.089C277.036 363.909 279.276 363.864 282.696 363.675C282.273 363.064 281.847 362.496 281.423 361.886C260.126 358.055 297.179 359.965 280.942 354.112C294.459 352.906 287.535 348.502 283.55 345.597C283.088 345.261 280.476 345.164 279.685 344.708C277.784 343.593 281.236 341.039 272.807 340.833C275.277 339.991 277.748 339.151 280.219 338.31C278.714 337.497 277.209 336.683 275.704 335.869C273.074 335.778 270.444 335.687 267.813 335.596C276.832 334.387 273.476 331.855 275.664 330.743C276.107 330.524 279.737 330.608 280.755 329.909C281.961 329.098 280.95 327.451 282.124 326.466C278.121 325.91 274.119 325.348 270.116 324.783C268.011 322.842 278.645 322.622 279.515 321.573C279.665 321.385 279.062 317.775 278.847 317.551C277.869 316.609 274.525 316.179 272.215 315.175C270.462 314.385 269.304 313.268 270.252 311.26C270.649 310.419 273.813 309.913 273.983 309.165C274.283 307.838 267.485 303.201 260.98 302.321C269.281 301.209 266.362 296.105 268.879 294.925C269.647 294.587 274.859 294.997 276.091 293.935C276.604 293.505 275.834 292.544 275.03 291.875C274.296 290.91 273.571 289.922 273.972 289.371C274.864 288.166 279.279 288.185 279.646 287.665C279.989 287.167 276.515 286.312 276.612 285.598C276.971 283.399 282.856 282.04 283.14 280.338C283.564 277.88 273.342 274.653 268.899 272.202C269.625 271.775 271.915 271.504 271.986 270.982C272.937 264.576 275.445 257.578 278.075 251.306C278.395 250.538 279.654 249.517 280.889 248.421C284.343 245.074 287.672 241.331 270.116 241.853C266.025 240.428 276.122 232.834 276.371 231.342C276.616 229.818 272.444 228.323 272.462 227.125C272.518 223.521 275.754 221.211 272.316 216.728C271.416 215.571 266.445 214.104 266.542 213.471C266.55 213.421 266.579 213.372 266.625 213.325C267.297 212.499 271.636 211.85 271.996 210.8C272.871 208.105 271.638 203.078 272.675 200.7C272.875 200.262 277.163 200.446 278.55 199.915C283.968 197.85 283.732 195.109 270.045 194.495C278.042 192.012 271.196 188.635 270.97 185.842C270.55 179.977 274.27 169.997 268.931 164.908C268.873 164.851 268.815 164.795 268.755 164.738C265.248 161.368 259.109 161.241 264.57 156.554C265.781 155.519 267.402 154.483 268.846 153.206C272.245 150.217 283.676 147.708 270.087 144.895C273.741 141.538 271.316 138.684 283.084 136.468C280.29 136.074 277.497 135.68 274.704 135.286C274.649 134.856 274.593 134.424 274.537 133.994C277.215 133.947 279.892 133.899 282.569 133.852C283.387 130.809 272.528 126.544 272.698 123.92C272.818 121.996 273.777 118.771 275.153 115.314C276.917 110.87 279.396 106.124 281.536 103.993C283.555 101.96 277.835 101.646 289.649 101.021C288.85 100.538 288.05 100.066 287.249 99.5941C284.684 99.2235 282.118 98.8499 279.551 98.4962C279.537 96.105 283.604 93.1895 283.6 90.6458C283.599 90.4223 283.581 90.1887 283.549 89.9448C282.923 85.3245 276.762 78.5363 281.211 73.9694C282.391 72.7627 287.713 71.2641 287.657 70.0719C287.579 68.3382 278.758 67.8939 278.598 65.6968C278.339 61.9134 288.595 54.8424 287.812 51.2423C287.585 50.1711 284.303 49.6834 283.952 48.9344C283.253 47.4961 282.936 46.1809 282.289 44.885C281.543 43.3843 280.358 41.9029 277.641 40.3216C286.096 37.1227 297.01 37.3999 308.022 36.4117C316.333 35.6618 335.594 33.3627 342.873 33.0393C347.987 32.8108 354.566 33.6645 360.195 33.3441C364.691 37.1732 359.742 38.7725 351.823 41.8822C351.878 42.8782 351.933 43.8733 351.988 44.885C352.249 49.6208 352.508 54.3733 352.763 59.1339C349.69 59.6607 346.617 60.1716 343.543 60.6948C343.536 60.6948 343.53 60.6948 343.523 60.6948C339.974 62.8986 347.885 63.8538 349.679 65.0492C359.173 71.4091 359.296 81.086 357.065 90.9379C355.303 98.9564 351.65 107.772 350.547 112.719C350.319 113.819 350.876 115.998 351.205 118.301C351.648 121.366 351.674 124.672 348.779 125.619C347.464 126.05 342.724 126.025 342.501 126.518C345.164 131.133 347.836 135.763 350.507 140.402C343.15 149.186 348.204 158.607 349.289 167.976C349.333 168.376 349.369 168.774 349.398 169.17C350.693 186.47 351.126 203.836 351.3 218.347C351.343 227.974 350.895 237.163 349.941 245.988C349.73 247.912 350.148 250.074 350.545 252.254C351.092 255.753 351.539 259.313 349.979 262.208C348.878 264.257 341.228 264.539 346.659 267.736C344.614 267.598 342.568 267.461 340.523 267.323C342.795 269.9 347.31 271.837 347.539 274.563C347.73 276.856 347.449 282.817 346.463 284.682C345.969 285.65 342.198 284.88 342.12 285.82C342.014 287.43 346.917 291.388 346.69 293.515C346.523 295.074 343.409 297.14 342.493 298.582C342.258 299.099 342.151 299.505 342.239 299.841C343.908 305.305 350.116 310.187 348.06 315.574C347.618 316.679 344.541 317.912 343.182 318.671C342.77 318.892 342.516 319.069 342.543 319.181C342.786 320.134 347.593 320.619 348.184 321.281C351.168 324.579 345.236 329.43 344.888 332.649C343.747 343.156 345.499 354.443 344.192 365.321C344.132 365.805 344.077 366.359 344.028 366.89C343.71 370.401 343.518 375 342.962 378.954C342.41 382.819 341.596 385.851 339.859 388.534C339.051 389.75 333.772 389.331 333.755 390.382C333.752 390.545 333.819 390.702 333.936 390.852C334.663 391.747 337.338 392.332 337.581 392.818C339.547 396.695 343.116 405.415 339.466 409.15C338.764 409.86 334.622 410.376 334.637 410.803C334.637 411.019 337.463 411.509 337.752 412.186C340.312 418.169 338.678 422.538 337.761 428.333C337.548 429.691 337.446 431.072 337.427 432.443C337.307 442.097 341.45 453.989 339.044 464.93C338.452 467.654 330.267 469.564 330.351 469.929C330.52 470.76 336.033 471.266 337.396 472.97C339.312 475.379 339.324 478.163 338.913 480.964C338.366 485.298 336.919 489.633 338.301 492.963C339.492 495.879 346.223 499.861 347.629 502.223C348.741 504.154 345.791 508.134 348.832 509.048C350.666 509.601 356.611 510.062 357.335 510.633ZM265.503 441.927C275.035 442.062 267.03 438.42 261.95 439.976C260.807 440.33 263.028 441.894 265.503 441.927ZM289.381 263.781C286.666 263.59 283.951 263.399 281.236 263.208C282.326 263.772 283.415 264.336 284.504 264.899C286.156 264.775 287.809 264.648 289.461 264.517C289.434 264.273 289.408 264.026 289.381 263.781Z" fill="white"/>
<path d="M401.919 489.138C402.579 489.694 399.012 490.481 398.824 491.134C397.999 493.873 395.526 494.903 394.124 497.38C392.041 501.069 396.729 511.996 371.948 512C371.948 512 371.948 512 371.947 512C371.704 512 371.458 511.999 371.209 511.997C366.489 511.958 361.335 511.028 355.996 510.89C350.655 510.752 316.174 510.855 314.235 509.534C311.681 507.62 320.522 503.022 320.13 502.003C319.86 501.306 316.726 500.444 316.169 499.551C314.375 496.67 316.668 495.166 308.153 492.569C312.64 491.531 317.127 490.5 321.614 489.458C319.534 488.101 325.452 486.051 325.126 485.231C324.858 484.557 321.31 484.158 321.145 483.454C320.94 482.664 324.77 481.453 324.193 480.022C323.265 477.667 314.009 477.245 312.834 475.835C311.618 474.381 316.649 472.088 313.392 470.228C312.374 469.994 311.355 469.76 310.337 469.526C308.034 469.693 305.731 469.86 303.429 470.027C302.357 469.091 307.076 468.683 307.162 467.816C307.265 466.797 302.791 466.277 302.812 465.594C302.833 465.033 306.421 464.281 306.196 463.55C305.887 462.486 300.707 462.718 299.738 462.146C299.361 461.913 296.504 457.718 296.463 457.472C296.259 455.662 303.349 455.509 303.97 454.075C305.662 450.069 299.935 445.977 297.772 442.277C296.804 440.617 297.217 438.922 298.352 437.26C316.497 439.87 330.623 434.135 302.227 436.262C306.268 434.442 298.603 433.132 299.901 431.395C300.747 430.271 304.685 429.518 304.583 427.898C304.378 425.058 293.189 421.922 313.419 421.134C309.856 417.783 317.198 414.919 299.342 413.676C298.252 412.809 308.892 410.635 310.338 409.656C311.7 408.743 316.515 401.761 316.786 400.593C317.056 399.458 317.352 397.438 315.787 396.469C313.851 395.264 295.334 394.355 316.992 392.248C315.246 389.748 315.869 388.836 318.391 386.505C318.847 386.079 322.062 386.041 322.066 385.793C322.067 385.278 319.694 384.424 319.408 383.509C318.938 381.987 325.706 381.176 315.373 381.302C313.645 380.338 311.916 379.3 310.188 378.316C312.183 377.979 314.179 377.644 316.174 377.313C314.003 376.781 311.832 376.222 309.662 375.685C324.609 376.364 315.803 372.628 307.22 373.795C310.267 371.897 313.314 370.018 316.363 368.185C316.378 368.122 316.351 367.926 316.367 367.864C316.422 367.83 316.477 367.796 316.533 367.762C333.518 368.283 318.563 363.586 309.32 363.788C309.337 363.568 309.354 363.349 309.372 363.131C313.92 361.3 310.259 359.433 313.333 357.163C316.409 354.845 318.059 355.129 325.887 354.551C325.45 353.98 325.013 353.454 324.577 352.874C303.216 349.539 340.29 350.815 323.975 345.478C337.475 344.208 330.505 340.132 326.516 337.322C326.052 336.994 323.44 336.903 322.649 336.463C320.744 335.383 324.21 332.849 315.784 332.581C318.262 331.739 320.743 330.907 323.228 330.097C321.737 329.252 320.249 328.395 318.763 327.555C316.135 327.405 313.508 327.254 310.88 327.104C314.568 326.692 316.203 326.053 316.993 325.407C317.154 324.869 317.076 323.145 317.285 322.623C318.472 322.053 317.893 321.168 319.217 320.829C319.669 320.714 323.276 321.136 324.328 320.694C325.575 320.177 324.647 318.8 325.858 318.088C321.89 317.36 317.918 316.653 313.945 315.963C311.906 314.36 322.523 314.759 323.422 313.912C323.581 313.775 323.059 310.666 322.843 310.47C321.156 308.93 312.099 308.784 314.336 304.695C314.742 303.95 317.909 303.548 318.089 302.842C318.396 301.668 311.689 296.883 305.229 295.699C310.383 294.999 311.296 292.642 312.05 289.924C312.392 289.047 312.585 288.245 313.551 287.965C314.323 287.75 319.5 288.478 320.759 287.632C321.785 286.942 317.981 284.165 318.835 283.223C319.761 282.223 324.163 282.493 324.546 282.039C324.904 281.61 321.467 280.637 321.585 279.997C322.014 278.009 327.931 277.042 328.273 275.468C328.781 273.191 318.697 269.631 314.358 267.078C315.099 266.714 317.397 266.57 317.487 266.086C317.967 263.683 318.716 261.175 319.59 258.86C321.013 254.473 322.905 250.294 324.8 246.787C325.583 245.317 330.279 243.27 330.814 241.439C331.383 239.183 328.787 237.609 317.705 236.872C313.851 234.574 324.529 229.127 324.859 227.925C325.211 226.658 321.16 224.983 321.248 224C321.515 221.027 324.859 219.361 321.625 215.327C320.777 214.291 315.876 212.726 315.996 212.203C316.15 211.581 321.083 211.428 321.483 210.608C321.671 210.208 321.768 209.732 321.814 209.194C322.04 206.615 321.532 203.239 322.406 201.495C322.618 201.095 326.896 201.432 328.295 200.991C333.763 199.276 333.594 196.755 319.938 195.648C327.981 193.724 321.205 190.463 320.96 188.379C320.946 188.248 320.935 188.118 320.927 187.987C320.72 183.293 324.11 173.985 318.713 169.281C315.212 166.195 309.076 166.08 314.522 161.97C315.729 161.07 317.344 160.157 318.779 159.035C322.157 156.417 333.559 154.094 319.931 151.718C323.32 148.905 321.329 146.562 330.81 144.476C331.414 144.341 332.065 144.206 332.767 144.071C329.966 143.763 327.165 143.451 324.364 143.135C324.298 142.724 324.233 142.352 324.167 141.95C326.843 141.853 329.518 141.755 332.194 141.657C332.943 138.819 321.985 135.141 322.085 132.753C322.247 128.747 326.585 118.5 330.203 114.738C332.126 112.738 326.398 112.618 338.175 111.498C337.357 111.047 336.539 110.596 335.721 110.146C333.143 109.861 330.565 109.578 327.987 109.296C327.888 106.736 331.891 103.703 331.841 101.274C331.747 96.8259 324.599 90.3678 329.163 86.1287C330.025 85.3288 333.198 84.3187 334.703 83.4641C335.209 83.135 335.526 82.8235 335.503 82.543C335.373 80.9242 326.542 80.7801 326.318 78.7227C325.946 75.1676 336.002 68.228 335.13 64.8432C334.877 63.8423 331.583 63.4479 331.215 62.7577C329.636 59.8477 329.846 57.4206 324.721 54.5781C333.12 51.2611 344.042 51.3879 355.041 50.3081C363.342 49.4619 382.592 47.2553 389.873 47.0324C394.987 46.8505 401.566 47.526 407.195 47.2618C411.701 50.2434 406.782 51.7181 398.917 54.6389C399.336 59.7773 399.798 65.0707 400.263 70.3695C397.205 70.9409 394.148 71.513 391.09 72.0831C391.083 72.0832 391.077 72.0834 391.07 72.0836C387.584 74.2297 395.519 74.8736 397.346 75.9236C400.112 77.5173 402.12 79.3903 403.534 81.4609C411.085 93.6798 401.212 110.147 399.534 120.063C399.111 122.6 403.192 130.88 398.185 132.568C396.881 133.002 392.142 133.095 391.932 133.57C394.443 137.429 396.949 141.329 399.455 145.178C399.723 145.612 399.992 146.044 400.26 146.474C392.793 155.415 398.624 164.82 399.331 174.117C399.845 180.99 400.349 187.71 400.538 195.065C400.668 203.65 400.584 210.549 400.525 217.248C400.296 228.185 398.749 240.158 396.696 249.1C396.541 249.781 396.52 250.463 396.61 250.927C396.675 255.288 397.952 260.127 395.622 263.132C394.437 264.669 386.797 264.321 392.122 267.246C390.087 266.994 388.053 266.744 386.018 266.493C386.443 266.925 386.955 267.34 387.504 267.744C389.755 269.704 392.65 271.469 392.75 273.511C392.847 275.662 392.362 281.101 391.319 282.769C390.793 283.641 387.056 282.729 386.947 283.594C386.788 285.079 391.549 289.016 391.237 291.05C390.956 292.892 386.117 295.314 386.529 296.822C386.97 298.474 387.794 300.232 388.652 302.023C391.041 303.31 393.521 306.933 392.058 310.359C391.461 311.736 386.366 313.348 386.469 313.843C386.688 314.807 391.477 315.456 392.047 316.158C394.929 319.721 388.726 324.927 388.012 328.752C387.755 330.162 387.511 331.625 387.262 333.15L387.628 329.661C386.955 337.51 388.377 346.362 387.402 355.045C386.986 358.807 387.076 364.096 386.362 369.003L386.367 368.594C385.946 371.662 385.198 374.589 383.779 376.816C382.99 378.073 377.706 377.692 377.702 378.733C377.698 379.88 381.267 380.559 381.553 381.076C383.56 384.817 387.147 393.062 383.49 396.591C382.788 397.26 378.645 397.743 378.659 398.149C378.659 398.353 381.484 398.835 381.772 399.462C384.318 405.119 382.663 409.245 381.686 414.779C379.837 425.387 385.086 437.697 382.236 448.865C381.616 451.282 373.424 452.958 373.506 453.302C373.671 454.058 379.181 454.529 380.541 456.05C385.013 461.105 379.132 467.919 381.893 472.718C383.254 475.102 390.248 478.357 391.795 480.696C393.032 482.558 390.288 486.972 393.359 487.797C395.214 488.301 401.173 488.534 401.919 489.138ZM309.184 426.194C318.711 426.536 310.796 423.035 305.681 424.344C304.529 424.645 306.711 426.103 309.184 426.194ZM335.131 260.289C332.429 259.965 329.726 259.641 327.024 259.319C327.38 259.537 327.737 259.754 328.094 259.972C328.803 260.337 329.509 260.724 330.215 261.102C331.868 261.084 333.523 261.049 335.176 261.027C335.172 260.984 335.168 260.94 335.165 260.897C335.153 260.693 335.142 260.491 335.131 260.289Z" fill="white"/>
<path d="M431.928 458.534C432.587 458.978 429.019 459.605 428.83 460.133C428.003 462.343 425.53 463.159 424.126 465.165C422.041 468.134 426.729 476.997 401.948 477C401.948 477 401.948 477 401.947 477C401.704 477 401.458 476.999 401.209 476.997C396.489 476.966 391.335 476.211 385.996 476.099C380.655 475.987 346.174 476.072 344.235 474.999C341.681 473.445 350.522 469.711 350.131 468.882C349.861 468.312 346.727 467.617 346.17 466.887C344.378 464.543 346.671 463.321 338.158 461.196C342.646 460.352 347.134 459.512 351.623 458.674C349.544 457.564 355.465 455.903 355.14 455.233C354.873 454.678 351.326 454.355 351.162 453.775C350.959 453.128 354.792 452.15 354.219 450.976C353.298 449.054 344.043 448.666 342.873 447.499C341.662 446.283 346.704 444.437 343.458 442.863C342.441 442.661 341.424 442.461 340.408 442.259C338.104 442.38 335.8 442.5 333.496 442.623C332.43 441.831 337.152 441.526 337.244 440.801C337.355 439.95 332.885 439.458 332.912 438.882C332.938 438.396 336.533 437.802 336.317 437.167C336.019 436.262 330.837 436.371 329.875 435.864C329.681 435.769 328.832 434.694 328.06 433.635C328.147 433.356 328.014 432.453 328.109 432.177C327.418 431.312 326.785 430.484 326.769 430.395C326.63 428.994 333.719 429.199 334.388 428.11C336.215 425.088 330.613 421.712 328.541 418.838C327.615 417.551 328.067 416.258 329.236 415.035C347.318 417.565 361.56 413.478 333.129 414.379C337.206 413.079 329.567 411.887 330.893 410.589C331.758 409.744 335.707 409.233 335.629 407.986C335.465 405.767 324.311 403.198 344.546 402.845C344.004 402.436 343.719 402.037 343.56 401.648C343.689 401.224 343.504 399.854 343.66 399.439C342.872 397.946 345.864 396.59 330.794 395.302C329.726 394.762 340.413 393.556 341.884 392.785C343.248 392.303 348.329 385.709 348.747 384.356C349.015 383.456 349.356 382.02 348.952 380.798C348.786 380.577 348.524 380.367 348.133 380.185C346.282 379.202 327.856 377.409 349.545 377.751C347.916 375.978 348.569 375.391 351.182 373.735C351.655 373.431 354.867 373.568 354.881 373.375C354.903 372.973 352.569 372.144 352.321 371.381C351.915 370.116 358.711 369.771 348.388 369.32C346.707 368.381 345.031 367.404 343.357 366.42C345.367 366.232 347.376 366.061 349.386 365.883C347.249 365.266 345.112 364.658 342.979 364.021C357.851 365.623 349.293 361.694 340.66 362.118C343.877 360.586 347.105 359.099 350.343 357.674C367.235 359.478 352.651 354.191 343.438 353.513C343.446 353.469 343.453 353.424 343.461 353.38C343.484 353.261 343.507 353.141 343.53 353.018C348.166 352.08 344.623 350.344 347.822 348.761C351.023 347.158 352.654 347.491 360.489 347.668C360.087 347.183 359.687 346.673 359.286 346.185C338.209 341.642 375.063 345.832 359.152 340.033C372.68 340.159 366 336.236 362.203 333.59C361.762 333.288 359.166 332.977 358.406 332.549C356.579 331.487 360.168 329.827 351.792 328.865C354.303 328.434 356.813 328.02 359.325 327.605C357.88 326.815 356.432 326.052 354.989 325.255C352.379 324.921 349.768 324.586 347.157 324.252C356.206 324.213 353.035 321.905 355.285 321.268C355.74 321.145 359.343 321.592 360.401 321.161C361.657 320.646 360.758 319.295 361.991 318.66C358.05 317.806 354.11 316.945 350.17 316.077C348.277 314.397 358.099 315.294 359.6 314.705C359.652 314.685 359.694 314.663 359.725 314.64C359.886 314.512 359.539 311.628 359.336 311.464C357.741 309.993 348.745 308.972 351.19 305.813C351.632 305.247 354.799 305.248 355.009 304.712C355.383 303.783 348.826 299.785 342.384 298.539C350.675 298.648 347.849 295.039 350.334 294.505C351.097 294.346 356.271 295.1 357.502 294.433C358.506 293.895 354.646 291.498 355.472 290.752C356.369 289.961 360.758 290.319 361.129 289.959C361.474 289.618 358.027 288.718 358.128 288.199C358.504 286.592 364.371 285.991 364.671 284.728C365.118 282.899 354.984 279.704 350.594 277.533C351.321 277.266 353.604 277.224 353.681 276.839C354.189 274.492 355.1 272.049 356.168 269.918C357.304 267.298 358.675 264.732 360.096 262.356C361.406 260.156 376.192 256.128 352.393 255.031C348.68 253.857 356.848 250.488 358.344 249.085C358.478 248.94 358.562 248.818 358.581 248.724C358.818 247.544 354.643 246.284 354.655 245.353C354.695 242.576 357.916 240.902 354.485 237.311C353.587 236.377 348.627 235.06 348.726 234.569C348.857 233.974 353.778 233.719 354.15 232.962C355 231.152 353.67 227.583 354.649 225.878C354.838 225.568 359.123 225.778 360.495 225.421C365.857 224.013 365.554 221.953 351.873 221.293C359.797 219.571 352.879 216.922 352.594 214.781C352.181 211.479 354.037 206.392 352.937 202.254C352.524 200.73 351.7 199.294 350.194 198.143C346.708 195.457 340.572 195.204 346.062 191.786C347.28 191.027 348.907 190.293 350.36 189.36C353.78 187.185 365.224 185.614 351.668 183.084C355.348 180.64 352.95 178.396 364.73 177.061C361.943 176.679 359.155 176.297 356.367 175.913C356.316 175.583 356.264 175.254 356.213 174.925C358.888 174.969 361.564 175.013 364.24 175.057C365.085 172.773 354.275 169.192 354.47 167.193C354.667 165.104 356.608 161.015 358.999 157.413C360.434 155.173 362.032 153.188 363.479 152.021C365.533 150.378 359.837 149.793 371.655 149.779C370.872 149.324 370.091 148.845 369.309 148.391C366.763 147.915 364.217 147.439 361.671 146.965C361.772 144.686 366.001 142.557 366.1 140.886C366.23 138.708 363.039 136.464 362.445 134.366C362.177 132.948 362.492 131.621 363.99 130.49C365.179 129.591 370.511 128.526 370.464 127.634C370.399 126.324 361.581 125.895 361.437 124.246C361.207 121.405 371.512 116.223 370.749 113.523C370.529 112.731 367.249 112.319 366.902 111.775C365.414 109.457 365.693 107.564 360.629 105.352C369.093 103.046 380.005 103.259 391.019 102.548C399.332 102.011 418.595 100.285 425.873 100.026C430.987 99.8522 437.566 100.504 443.195 100.263C447.689 103.275 442.734 104.507 434.805 106.867C435.099 111.273 435.378 115.669 435.646 120.072C432.57 120.439 429.493 120.796 426.416 121.164C426.409 121.164 426.402 121.164 426.396 121.164C422.831 122.801 430.734 123.604 432.519 124.54C438.246 127.526 440.513 131.422 440.908 135.651C441.57 147.825 433.892 155.566 432.339 161.249C432.263 161.504 432.272 161.851 432.328 162.271C432.667 164.848 434.829 169.934 430.479 170.873C429.161 171.158 424.425 170.982 424.198 171.35C426.817 174.91 429.445 178.467 432.075 182.039C424.345 188.691 430.043 196.296 430.768 203.633C430.875 204.705 430.98 205.809 431.086 206.894C432.695 223.277 434.13 239.751 432.891 254.969C432.677 257.697 432.333 260.57 431.912 263.128C431.251 267.131 434.206 272.25 431.491 275.613C430.483 276.859 424.276 276.745 426.826 278.622C427.125 278.866 427.545 279.142 428.109 279.456C426.072 279.224 424.035 278.991 421.999 278.758C424.21 280.985 428.669 282.816 428.848 284.954C428.993 286.765 428.634 291.269 427.635 292.61C427.132 293.316 423.388 292.451 423.3 293.16C423.177 294.376 428.014 297.751 427.757 299.398C427.524 300.893 422.772 302.702 423.225 303.934C424.822 308.371 430.584 313.788 428.206 317.706C427.538 318.779 422.403 319.51 422.487 319.888C422.669 320.615 427.407 321.554 427.953 322.095C428.79 322.941 428.802 323.783 428.405 324.564C427.472 326.515 424.355 328.413 423.979 330.013C422.209 337.531 423.388 345.57 421.764 353.106C421.3 355.256 421.068 358.101 420.518 361.38C419.925 364.533 419.04 367.622 416.879 369.773C416.038 370.611 410.779 370.025 410.73 370.8C410.677 371.659 414.214 372.345 414.478 372.768C416.341 375.442 419.586 383.219 415.484 387.078C415.06 387.444 413.611 387.637 412.384 387.803C411.391 387.794 410.546 387.8 410.543 387.886C410.533 387.986 413.324 388.477 413.585 388.795C415.895 391.603 414.227 394.376 413.025 399.718C412.675 401.268 412.463 402.959 412.319 404.753L412.418 402.567C412.287 410.385 415.497 419.241 412.761 427.17C412.061 429.205 403.814 430.247 403.884 430.533C404.022 431.166 409.509 431.811 410.81 433.148C411.778 434.152 412.21 435.208 412.33 436.285L412.365 435.24C412.892 438.481 409.826 442.372 411.945 445.338C413.294 447.23 420.277 449.876 421.819 451.743C423.051 453.237 420.299 456.769 423.369 457.443C425.224 457.85 431.182 458.046 431.928 458.534ZM340.252 406.746C349.774 407.181 341.904 404.294 336.773 405.24C335.618 405.452 337.781 406.633 340.252 406.746ZM371.085 272.786C368.383 272.463 365.681 272.139 362.978 271.814C364.061 272.279 365.139 272.762 366.217 273.252C367.864 273.278 369.511 273.295 371.158 273.316C371.134 273.136 371.11 272.96 371.085 272.786Z" fill="white"/>
</svg>
