<svg width="304" height="369" viewBox="0 0 304 369" fill="none" xmlns="http://www.w3.org/2000/svg">
<rect x="26" y="45" width="247" height="298" fill="white"/>
<path d="M44.3367 0.49138C49.1655 -0.0378965 54.9605 0.412708 60.6411 1.32603C63.815 1.8821 67.1119 2.59263 70.0852 3.35443C72.4937 3.96781 71.2336 6.48996 72.9209 7.02527C76.2486 8.06674 79.3806 6.85243 82.717 8.05681C83.8257 8.46813 82.409 12.4881 83.5774 12.8269C89.9603 14.6527 96.0706 13.6352 102.619 14.4826C119.821 16.7077 136.937 18.0188 154.324 19.0626C167.902 19.8223 178.034 20.4538 192.254 19.3872C193.416 19.3798 194.718 19.3157 196.128 19.2011C200.062 18.8998 204.859 18.7235 211.928 18.2335C222.229 17.4794 230.097 18.6171 237.287 18.2777C238.826 18.2148 238.219 14.6148 238.535 14.3487C243.202 10.5622 241.573 16.5078 243.419 18.2353C243.595 18.3525 243.789 18.4535 244.003 18.5351C252.325 21.8816 257.573 24.2275 262.757 24.9069C267.294 25.4561 272.193 26.5138 275.873 27.372C278.535 28.1111 281.186 29.2206 283.606 30.6177C289.102 34.0428 290.049 33.0201 291.057 31.9793C291.819 30.9789 293.094 30.5624 295.444 36.7369C295.685 37.5129 291.042 37.5426 292.455 40.1525C294.481 43.9168 296.689 48.9489 297.679 52.2661C298.3 54.2248 298.736 56.1067 298.863 57.3624C299.361 64.1563 299.236 65.4603 298.956 70.7538C298.298 77.825 295.435 82.6307 295.842 87.4775C295.934 88.4909 299.891 87.5933 300.396 89.1813C300.802 90.4755 300.473 93.3334 299.852 95.093C299.707 95.4954 299.543 95.8592 299.362 96.1287C298.401 97.5373 295.399 96.833 294.697 97.0694C288.759 99.0836 296.786 104.68 296.985 105.347C300.288 118.042 295.831 129.22 295.996 141.521C296.022 143.214 296.097 144.927 296.2 146.665C296.659 154.076 297.994 161.195 298.553 167.569C298.835 171.053 299.033 174.625 299.118 178.998C299.203 186.766 298.551 192.599 298.851 199.545C298.891 200.696 303.413 199.317 303.468 200.74C303.698 206.947 303.609 213.148 303.007 219.498C302.199 227.554 300.932 235.479 298.873 243.535C298.519 244.917 294.602 243.001 294.011 244.367C291.675 249.881 287.545 257.346 289.12 264.442C289.992 267.753 292.735 270.702 298.615 272.824C297.522 278.141 296.475 285.123 292.694 290.17C290.304 293.366 286.267 290.006 287.655 293.931C287.68 293.99 287.707 294.052 287.735 294.116C288.103 294.96 291.944 294.095 292.215 295.329C293.369 300.603 292.116 306.963 294.048 312.737C294.45 313.916 297.85 313.608 298.461 313.945C303.408 316.762 295.192 321.5 294.586 322.542C292.135 326.87 291.508 330.561 291.27 334.614C291.166 336.295 291.144 337.958 291.032 339.931C290.974 340.919 290.898 341.965 290.725 343.252C290.484 344.651 290.478 345.819 289.195 349.269C288.468 351.148 287.58 353.054 287.464 353.926C287.314 354.853 288.048 354.826 288.792 354.778C289.534 354.73 290.312 354.612 290.234 355.521C289.924 356.234 289.962 359.143 281.907 363.62C278.074 365.438 275.198 365.618 275.539 365.628C276.591 365.495 276.588 365.487 276.307 365.621C276.009 365.749 275.381 365.986 274.635 366.252C273.123 366.79 271.143 367.42 269.095 367.917C264.419 368.986 263.066 368.814 261.089 368.914C259.288 368.942 257.728 368.872 256.219 368.753C253.217 368.511 250.474 368.06 247.821 367.442C245.933 366.992 247.639 363.093 246.746 362.679C242.844 360.895 241.989 368.238 238.303 366.66C237.526 366.337 237.956 363.007 237.813 362.641C235.581 356.908 233.674 365.046 233.117 365.228C227.978 367.009 224.184 363.169 219.859 361.348C218.026 360.633 216.119 360.208 213.984 360.515C213.073 360.651 215.071 364.902 212.481 365.022C206.644 365.25 201.895 365.13 196.688 364.944C186.245 364.551 175.346 363.264 165.009 360.915C162.593 360.373 164.353 357.226 164.205 356.834C161.788 350.716 160.093 358.863 159.299 359.161C155.131 360.586 151.196 357.99 147.734 358.929C145.99 359.402 144.367 360.769 142.873 363.994C128.862 361.91 114.964 362.179 100.847 361.227C93.957 360.788 87.7282 359.811 81.696 358.754C75.9996 357.747 70.3157 356.343 64.6261 354.292C64.3024 354.185 64.9675 350.175 64.3115 349.979C56.4469 347.594 57.851 353.873 52.69 361.49C51.4143 363.402 47.4675 354.189 47.1009 353.519C45.7986 351.037 47.0728 345.042 46.6382 344.563C43.0262 340.817 43.7671 360.574 39.3787 360.716C39.2358 360.688 39.6978 357.027 39.3063 356.678C38.1001 355.584 36.9871 357.085 36.0598 355.902C35.8217 355.6 35.62 355.215 35.5179 354.769C32.4224 351.419 30.9348 344.535 26.946 349.576C26.2256 350.256 27.7589 361.696 21.4473 360.795C20.9744 360.714 20.2895 360.637 19.0487 360.434C16.5029 360.03 12.7344 358.996 9.10837 356.188C5.49051 353.429 3.21183 349.567 2.16854 346.717C0.134735 340.878 0.624605 337.847 0.807921 336.287C1.56025 332.828 5.15701 335.318 5.31217 335.033C10.5512 327.778 12.4175 331.152 19.8053 329.217C27.225 327.765 10.5739 325.387 8.98153 323.75C7.39785 322.072 12.2297 318.639 13.7992 317.975C15.3718 317.275 17.316 319.057 18.2813 318.338C24.6038 313.485 10.7352 313.883 8.52022 311.52C6.76717 309.806 6.8695 308.76 7.77795 308.656C9.86129 305.854 15.9828 303.716 17.0552 300.866C17.486 299.719 14.572 300.431 14.3975 299.364C13.74 295.155 17.8378 292.987 14.6 288.092C14.0764 287.268 6.82174 283.161 12.4286 281.068C13.2375 280.764 16.2983 281.893 17.0744 280.184C18.2425 277.64 19.0633 272.947 18.0574 270.118C17.3973 268.277 13.2438 269.895 13.4805 268.461C13.5093 268.302 13.6047 268.101 13.7804 267.842C14.4892 266.774 17.4944 268.791 18.5682 266.713C19.6672 264.628 19.2126 259.179 18.8844 257.129C18.577 255.077 14.8207 256.605 14.5444 256.463C12.9648 255.62 10.637 252.076 10.5856 251.75C10.1579 249.174 9.83307 246.583 9.56264 244.065C8.68098 232.41 10.8849 226.854 11.4771 218.591C12.1832 211.467 12.6697 204.508 11.7889 197.382C11.6224 195.979 7.52554 196.919 7.45787 196.705C5.73807 191.895 16.6351 195.676 20.2837 192.34C11.9671 192.815 13.473 190.839 12.5714 187.461C12.1305 185.833 8.90745 186.707 8.57827 186.558C3.69574 184.122 10.022 182.466 11.3165 182.041C16.0784 180.472 10.4717 178.703 13.6563 177.632C16.8172 176.569 21.4761 179.093 21.4377 175.864C18.4671 174.937 10.6709 177.285 9.42722 174.82C6.91906 169.858 7.53248 162.629 8.76382 155.865C9.83924 149.851 11.4599 144.19 11.8677 140.687C12.7472 133.185 12.3433 130.729 13.6397 126.436C16.0031 118.725 10.0942 121.259 7.69873 116.362C5.28408 111.517 19.3604 114.436 22.443 113.885C25.4497 113.342 22.556 112.489 24.0112 111.709C24.046 111.69 24.0833 111.672 24.1233 111.654C25.8307 110.857 27.8377 112.82 28.5398 110.778C29.2492 108.715 23.9084 103.086 20.7193 102.358C13.9712 100.791 6.85626 103.162 9.3911 97.9574C9.54103 97.6579 13.2691 98.6588 13.6538 97.508C16.5855 88.3139 16.7029 78.6644 19.3016 69.3833C19.6665 68.0992 23.8121 69.2761 24.0718 68.5405C24.4459 67.4847 24.6385 66.6197 24.6712 65.9298C24.9019 61.515 18.7294 62.9639 12.1724 58.8886C22.491 60.3007 28.8466 58.2289 29.3504 52.6521C29.6833 49.2725 25.1357 49.4413 22.203 46.8275C21.319 46.0317 24.695 43.918 22.6424 43.2126C15.9321 40.8822 7.90291 42.1751 11.7782 36.5344C11.959 36.292 15.6207 37.6272 15.9693 36.754C16.43 35.6158 16.4958 34.6638 16.3029 33.8228C16.1349 28.419 12.8861 23.7811 17.4966 16.5414C17.7923 16.1451 18.1172 15.7466 18.4793 15.3449C21.8868 11.1381 29.569 8.86425 33.0171 9.21606C37.3536 8.93789 42.3241 10.1389 45.6207 11.9028C48.9969 13.6433 51.1436 15.5205 52.9254 16.81C47.0734 26.8107 52.7608 27.3392 59.3973 22.296C61.9783 24.5304 64.9079 26.365 67.0648 28.7862C67.417 29.1655 67.7488 29.5594 68.0555 29.9699C68.8949 31.0963 66.1201 33.2123 66.033 33.6051C64.4239 39.5936 70.5922 34.6083 71.4904 34.9742C80.5963 38.9713 81.2146 48.5003 91.0871 51.1818C91.4346 51.2721 97.9674 46.4646 94.8996 52.0128C94.674 52.3797 90.066 52.5828 92.3812 55.8276C93.9826 58.0782 95.0718 62.8377 97.6506 66.1718C98.7364 67.5761 100.185 68.6961 102.109 69.1663C103.622 69.5516 110.664 67.6204 108.593 73.0287C108.305 73.7565 106.306 74.9948 105.675 76.2329C103.67 80.183 110.451 75.517 106.472 81.5435C104.275 84.8453 102.85 88.2421 103.101 90.7642C103.416 92.9712 105.007 94.6469 108.267 95.0994C108.491 95.145 114.218 91.8525 115.268 93.2019C116.951 95.3685 118.49 99.185 120.335 101.354C121.222 102.392 123.772 99.1619 123.98 99.2987C125.267 100.269 126.375 101.308 127.341 102.401C131.878 107.462 133.675 113.471 138.666 120.125C139.538 121.308 144.541 121.263 146.279 124.114C146.713 124.827 146.934 125.714 146.817 126.816C146.18 132.901 129.388 144.006 138.863 146.906C142.689 148.108 163.714 133.758 158.939 147.42C162.204 149.379 164.793 151.888 167.138 154.597C172.718 161.056 177.178 168.37 185.506 172.204C186.003 172.433 191.697 169.176 193.005 169.801C193.069 169.831 193.121 169.869 193.161 169.918C194.377 171.433 192.742 174.457 193.547 175.616C196.003 179.26 199.792 181.252 202.968 184.014C204.029 184.924 205.049 185.86 205.964 186.945C207.327 188.528 204.438 190.435 206.174 192.351C207.917 194.255 212.208 192.107 213.25 196.079C213.843 198.411 211.181 203.878 210.093 207.268C209.887 208.393 209.871 209.381 210.202 210.139C217.117 204.42 218.523 206.359 223.074 208.01C223.955 208.328 225.749 205.626 226.287 205.671C228.524 205.8 227.511 208.586 229.811 208.572C230.362 208.567 232.702 206.589 233.288 206.477C238.374 205.454 235.916 213.274 235.404 214.58C234.313 217.661 235.297 218.303 236.238 219.021C236.811 219.442 237.352 219.857 237.285 220.91C237.15 223.633 233.45 222.58 234.141 225.195C235.036 228.461 237.25 231.467 239.568 234.067C240.566 235.219 241.544 236.873 242.268 238.581C243 240.299 246.222 237.494 246.413 237.699C248.243 240.085 247.54 243.645 249.966 245.077C251.028 245.687 252.616 245.906 255.198 245.479C237.457 257.239 258.227 246.892 256.818 254.436C256.692 255.036 247.652 259.241 245.657 258.231C243.673 257.247 245.478 253.602 242.396 252.464C241.899 252.272 237.158 252.835 234.059 253.336C232.391 253.084 231.144 252.875 230.883 252.738C224.59 249.452 238.622 244.147 239.213 243.497C246.561 238.007 235.736 238.779 235.113 239.308C234.398 239.29 233.936 239.39 233.72 239.583C229.999 237.493 228.143 233.871 224.232 231.904C222.727 231.134 220.12 232 217.631 232.828C215.114 233.979 212.806 235.182 212.404 234.415C209.713 229.451 217.922 218.3 204.577 220.848C201.698 221.355 194.574 229.432 197.447 219.888C197.504 219.674 197.945 218.605 198.259 217.316C199.433 215.532 200.015 212.932 196.999 214.425C196.423 214.716 194.249 216.933 193.88 216.938C191.423 216.899 192.027 214.103 189.087 212.987C186.158 211.879 181.76 210.151 179.48 206.027C179.313 205.723 179.196 205.353 179.122 204.935C179.387 202.888 181.654 198.566 182.076 197.197C183.52 192.744 176.821 195.418 179.328 190.882C181.836 186.312 189.433 183.354 188.899 178.134C182.94 183.578 176.687 189.021 170.621 194.419C170.052 193.781 169.494 193.125 168.947 192.456C164.888 187.28 160.18 179.991 153.82 174.12C152.937 173.315 150.747 177.256 149.712 176.462C148.814 175.766 148.046 174.968 147.352 174.109C144.9 171.027 143.555 167.171 139.909 164.854C136.341 162.608 129.913 162.616 126.115 160.408C130.291 153.267 125.629 150.322 123.2 147.863C122.783 147.445 122.379 146.998 122.036 146.511C121.127 145.235 122.894 143.514 122.617 142.135C121.441 136.883 117.282 144.199 115.47 144.235C107.494 144.082 120.09 130.63 115.236 126.023C115.014 125.83 104.578 128.859 103.652 128.685C97.9009 128.026 105.835 125.965 104.778 123.527C104.392 122.615 104.085 121.718 103.792 120.847C103.232 118.227 102.65 115.914 98.78 114.914C97.3431 114.545 90.8093 116.397 92.5998 111.246C92.8349 110.572 95.4096 108.572 95.3665 108.234C94.3504 102.316 86.661 108.471 81.6934 108.112C81.6272 108.122 81.562 108.132 81.4977 108.139C77.5185 108.712 80.3664 101.226 81.2948 99.2019C83.7966 94.0698 84.1042 98.9967 84.5459 98.7247C90.0883 95.7383 87.378 94.2156 86.1609 92.0531C93.4653 85.1775 90.7321 82.9815 84.8544 89.8148C84.2204 90.5709 86.19 91.3929 86.1609 92.0531C77.4264 97.0054 73.7721 94.8312 77.7159 85.1814C78.9201 82.3321 81.4872 80.6912 81.7496 78.8256C81.9607 77.8289 81.4557 76.8044 79.6117 75.5726C77.3223 74.0451 72.5729 79.1543 69.6884 78.5807C63.1363 77.3048 63.9744 68.3 59.9094 65.4477C58.4602 64.4419 56.8511 68.2464 55.7847 67.6737C52.9948 66.2284 53.1516 62.4117 50.106 61.6382C49.8352 61.5804 47.638 64.9179 47.0025 64.4235C45.5155 63.3039 44.2984 62.1395 43.166 60.9692C38.8797 57.0389 34.6008 52.2191 32.6323 51.0374C32.253 50.7704 31.9109 51.076 33.4539 51.9414C34.8645 52.8326 38.8627 53.6087 41.3148 53.2768C40.9159 53.5328 42.9729 53.2892 45.4895 51.8533C47.6149 50.6907 50.1091 48.504 51.4756 46.4981C52.0881 44.6487 52.4079 42.3631 51.9967 38.1226C50.0772 42.8044 48.5486 46.0563 48.9117 49.0817C49.3909 52.9949 53.4343 52.5211 55.9763 54.3157C60.9105 57.6263 51.3372 62.3625 49.8768 63.1754C49.8216 63.2089 49.0176 59.8865 46.9189 61.5645C42.6504 62.4392 49.8597 63.1481 49.8768 63.1754C49.4679 63.3737 49.0313 64.6957 48.7501 66.2641C48.3748 68.4307 48.2565 71.1918 48.6844 72.0151C49.0947 72.8101 52.845 72.3777 52.9882 72.7893C56.3118 82.6378 57.3349 92.7572 55.4547 103.429C55.3765 103.618 51.1875 103.28 51.056 103.721C49.991 107.086 51.0028 109.873 52.5711 112.802C53.8769 115.066 55.5876 117.268 56.8492 119.656C59.6253 124.933 58.3918 128.561 51.0674 130.96C51.7912 134.524 48.4159 139.334 46.4019 142.198C44.3861 145.043 52.5413 145.666 52.6954 145.913C55.2037 149.98 55.2616 153.091 54.5959 156.329C53.9422 159.591 52.5795 162.916 52.1814 167.165C51.7839 171.249 52.9086 179.326 53.7833 183.722C54.487 187.194 52.568 189.276 53.7874 192.463C53.9503 192.894 57.5849 192.462 57.7247 192.593C62.071 196.135 53.1879 194.434 51.601 195.166C45.8334 197.821 42.7592 199.502 45.5009 204.005C46.1287 205.064 58.9457 207.957 59.7192 209.767C60.7024 212.129 56.1024 211.32 57.2593 213.765C57.3548 213.973 60.1799 213.869 60.0901 215.358C60.0565 215.935 60.0175 216.572 59.9719 217.137C59.7563 220.771 59.3532 224.52 59.051 228.255C58.8998 230.087 58.7742 231.96 58.7179 233.532C58.6503 235.072 58.7189 236.4 58.7149 235.618C58.6745 235.101 63.2407 235.319 63.1957 234.258C63.1876 234.12 63.1787 233.991 63.1718 233.882C65.3316 242.782 66.3247 252.217 64.6903 261.787C64.2501 264.205 61.053 262.806 60.1394 263.353C57.1441 265.132 58.1678 267.141 59.7322 268.924C61.0653 270.106 62.8186 271.043 62.8858 271.329C66.6163 285.891 58.116 297.324 60.5616 310.082C60.6245 310.372 62.1107 311.575 63.2734 312.952C64.3765 320.19 64.6046 323.339 59.9461 324.314C59.3976 324.492 51.2324 325.577 55.9145 328.712C56.211 328.895 60.3876 328.458 59.4502 330.717C58.5081 332.961 60.5294 336.401 56.1708 336.392C55.4766 336.399 53.2105 336.34 51.8923 336.098C50.5131 335.685 50.4165 335.795 52.7737 331.685C52.6614 331.296 56.4121 328.71 53.6375 319.298C52.1956 314.698 47.8743 308.589 42.2314 305.028C36.6421 301.401 31.2335 300.553 27.8857 301.566C27.4876 301.966 27.2087 302.493 26.9762 303.144C26.6771 304.677 24.6739 314.714 26.3869 309.581C26.6651 308.574 26.2075 306.319 26.8689 304.903C27.4898 303.564 28.443 304.009 29.3351 303.451C32.0487 303.001 32.9836 302.743 34.2122 302.244C35.3449 301.762 36.3045 301.118 37.2409 300.209C38.0734 299.374 41.4149 292.406 44.1044 297.591C44.5187 298.403 43.7939 301.793 45.1612 302.155C51.588 303.898 58.0524 301.686 64.2607 304.133C66.4717 304.995 65.2136 310.437 67.4791 311.949C69.7351 313.458 74.2435 314.986 76.6996 312.567C79.1524 310.146 76.8353 301.353 80.4494 300.778C81.6216 300.596 82.7596 300.458 83.929 300.363C87.4518 300.078 91.8243 300.25 95.2244 300.656C98.4507 301.041 100.921 301.556 103.931 302.151C110.652 303.489 117.827 305.182 124.957 305.781C127.12 305.961 125.423 302.791 128.609 302.829C134.088 302.886 141.45 302.381 148.727 302.471C157.049 302.576 165.434 303.47 170.933 307.047C179.213 312.416 168.704 316.374 175.057 318.581C178.124 319.634 181.543 309.53 182.293 309.217C188.087 306.7 192.476 308.992 197.538 309.451C198.925 309.574 200.348 309.571 201.871 309.32C203.367 309.073 202.002 304.931 203.295 304.768C207.756 304.176 212.003 306.226 214.635 305.926C215.899 305.784 215.685 302.647 216.827 302.891C217.54 303.03 218.257 303.215 218.996 303.461C221.764 304.161 224.387 305.421 227.178 307.582C227.519 307.847 225.264 311.764 228.088 311.888C232.651 312.077 238.295 314.969 243.319 311.962C244.804 311.056 244.862 303.895 247.976 308.823C248.618 309.849 247.945 318.467 251.333 310.989C251.715 309.796 258.159 299.466 256.377 306.062C256.108 306.815 256.098 308.313 254.042 310.415C254.855 312.547 255.965 314.543 256.426 313.705C256.53 313.486 254.73 310.023 255.574 309.356C256.862 308.657 257.526 307.646 265.729 305.875C267.262 305.699 259.784 306.214 252.28 310.878C244.888 315.461 241.331 320.844 239.577 323.733C236.204 329.769 236.252 331.289 235.763 332.621C235.429 333.826 235.329 334.3 235.244 334.582C235.165 334.854 235.126 334.903 235.09 334.86C234.966 334.607 234.865 333.245 234.542 331.861C234.521 331.785 234.5 331.708 234.477 331.628C234.191 330.591 230.151 331.958 229.847 330.405C229.003 325.839 230.023 318.348 231.295 312.458C231.771 310.264 235.063 311.797 235.423 311.639C241.273 309.097 233.403 307.497 232.951 306.61C230.309 301.137 233.833 297.136 233.376 290.841C233.366 290.746 233.354 290.652 233.34 290.558C233.154 289.232 229.35 289.949 229.03 289.67C225.913 286.783 232.537 289.193 233.377 287.507C235.752 282.825 235.722 277.424 235.604 271.962C235.558 269.961 231.056 271.909 231.069 270.096C231.071 266.364 231.277 262.566 231.672 258.977C232.071 256.051 232.951 249.195 234.72 243.067C235.236 241.275 238.554 242.518 239.332 242.166C244.772 239.734 237.603 235.654 236.943 234.707C233.923 230.54 236.959 229.067 236.576 225.461C236.232 222.278 236.064 218.969 236.038 215.598C235.783 206.121 236.532 192.198 236.808 185.577C236.84 184.119 236.748 182.057 236.61 179.668C235.805 168.123 236.433 156.811 237.21 147.357C238.042 138.105 238.549 128.75 238.076 118.315C238.022 117.029 233.563 118.343 233.46 117.232C232.852 109.167 233.099 101.428 233.622 92.1062C234.038 84.3683 235.158 75.6787 235.412 69.8851C235.446 68.9016 231.072 69.6807 230.97 68.1792C230.844 66.7177 230.813 65.7475 230.934 66.0889C231.053 66.3703 231.464 67.9933 232.364 69.276C233.224 70.438 236.521 68.2354 237.289 69.1927C237.649 69.5991 237.978 69.9427 238.251 70.1932C239.27 70.4065 240.387 76.5603 249.291 83.441C254.192 86.715 243.85 85.8389 251.235 89.8857C252.68 90.577 254.13 91.1509 255.57 91.6188C254.985 91.4756 254.716 91.4575 254.781 91.5118C254.824 91.565 255.218 91.6593 255.057 91.661C245.763 90.6729 237.461 88.8074 236.119 88.1225C230.209 86.8186 226.544 85.4721 223.951 83.4404C223.639 83.078 222.218 74.3739 221.796 76.1494C221.826 76.3432 221.856 76.5397 221.887 76.7384C222.19 79.0247 222.637 81.6079 223.005 83.9796C218.618 85.127 209.557 87.437 198.698 88.299C197.012 88.3638 192.618 88.8133 188.477 89.0171C184.289 89.2354 180.344 89.284 176.53 89.2627C168.952 89.2106 161.851 88.9007 154.794 88.6474C151.019 88.4997 147.181 88.3939 143.335 88.351C142.294 88.3405 144.136 92.9864 142.112 92.9899C130.499 93.0147 119.14 94.3933 107.112 89.7951C105.918 89.345 106.51 81.1457 103.005 82.392C102.386 82.6204 97.1001 83.7172 95.721 85.4942C95.5341 85.7625 96.5002 89.5907 94.787 89.7002C84.8267 90.265 74.3474 89.3326 64.0652 86.7445C62.4161 86.3179 64.2809 82.2888 63.118 81.9492C61.3512 81.4486 59.5376 81.171 57.7188 81.0022C51.166 80.3766 44.2872 81.4176 38.144 78.1639C32.8925 75.3776 35.3104 68.4553 32.9077 61.3543C32.5889 60.3587 29.225 59.949 29.3841 55.904C29.8898 45.765 32.2573 34.8174 32.579 23.9921C32.6184 22.8271 31.7784 22.8006 31.2651 22.3766C31.1098 22.2686 30.9696 22.1337 30.5385 21.924C30.4182 21.8706 30.283 21.8133 30.1317 21.7523C29.9447 21.6885 29.733 21.6212 29.516 21.5523C29.0798 21.4123 28.4025 21.2672 28.1496 21.1194C27.8687 20.9713 27.9915 20.8005 28.4912 20.6183C28.7345 20.5278 29.055 20.4369 29.3856 20.3469C29.6516 20.2535 29.9324 20.1588 30.1909 20.0595C31.146 19.6602 31.3967 19.1167 31.7178 18.4403C31.8242 18.0814 34.2497 16.4143 35.1111 14.5552C35.6423 13.2693 35.1349 9.12056 36.1599 7.498C37.1731 5.87503 38.0046 9.37548 39.7437 7.48681C41.497 5.57136 41.0109 0.874713 44.3367 0.49138ZM37.5075 155.241C37.0227 155.574 36.8137 155.878 36.8138 156.149C36.8143 157.865 45.4101 158.125 45.021 156.232C44.9764 156.015 44.8139 155.771 44.507 155.5C44.3255 155.354 37.7014 155.101 37.5075 155.241ZM168.359 172.703C170.137 165.603 161.788 170.456 160.266 175.807C158.758 181.161 167.822 174.856 168.359 172.703ZM197.915 196.719C198.245 189.954 182.602 203.033 189.692 204.409C190.098 204.485 197.911 197.122 197.915 196.719ZM45.8463 60.0728C45.8373 59.8821 43.5344 59.5896 43.4702 59.7751C42.0258 64.2726 46.6207 64.8546 45.8463 60.0728ZM226.64 220.403C227.964 217.652 223.062 216.795 221.512 220.261C220.257 223.023 224.964 223.77 226.64 220.403ZM24.047 301.354C23.83 301.379 23.4976 302.983 24.7054 303.054C28.5951 303.281 27.6955 300.932 24.047 301.354ZM255.146 274.805C255.13 274.74 255.115 274.677 255.102 274.616C253.121 264.905 267.813 255.45 268.702 265.518C268.886 267.378 262.452 263.22 261.645 265.885C260.838 268.567 263.837 269.839 265.929 271.007C267.621 271.929 268.766 272.742 267.242 275.587C266.631 276.805 255.299 275.779 255.118 274.795C255.128 274.798 255.137 274.801 255.146 274.805ZM20.2477 156.664C20.0572 156.722 19.8546 158.964 20.0422 159.031C24.5875 160.3 24.9985 155.753 20.2477 156.664ZM70.6786 350.501C70.7792 350.905 75.9705 351.434 76.1388 351.07C79.1021 343.7 68.5626 342.605 70.6786 350.501ZM52.8646 17.135C57.9016 14.7891 61.1535 16.4463 59.3913 22.2844C57.4826 20.5258 55.3342 18.9386 52.8646 17.135Z" fill="white"/>
</svg>
